<?xml version="1.0" standalone="no"?>
<!DOCTYPE svg PUBLIC "-//W3C//DTD SVG 20010904//EN"
 "http://www.w3.org/TR/2001/REC-SVG-20010904/DTD/svg10.dtd">
<svg version="1.0" xmlns="http://www.w3.org/2000/svg"
 width="100.000000pt" height="100.000000pt" viewBox="0 0 100.000000 100.000000"
 preserveAspectRatio="xMidYMid meet">
<metadata>
Created by potrace 1.11, written by Peter Selinger 2001-2013
</metadata>
<g transform="translate(0.000000,100.000000) scale(0.100000,-0.100000)"
fill="#000000" stroke="none">
<path d="M422 956 c-30 -16 -62 -65 -62 -93 0 -14 -6 -23 -15 -23 -29 0 -55
-38 -55 -79 0 -22 5 -43 11 -46 7 -5 5 -15 -5 -31 -21 -31 -21 -65 -1 -58 27
11 17 -33 -16 -68 -17 -18 -45 -57 -62 -86 -18 -29 -42 -70 -54 -90 -13 -20
-23 -49 -23 -65 0 -24 2 -26 20 -15 24 15 28 11 38 -43 12 -64 37 -110 85
-159 46 -46 108 -80 147 -79 16 0 8 5 -23 13 -26 7 -51 17 -55 21 -4 5 1 5 11
2 49 -18 68 -18 93 -2 32 21 27 27 -12 16 -30 -8 -84 4 -84 20 0 5 -5 9 -11 9
-6 0 -8 -9 -4 -20 3 -11 2 -20 -2 -20 -15 0 -66 58 -59 68 3 5 -3 27 -13 48
-34 71 -41 111 -22 128 22 20 46 5 38 -23 -8 -32 10 -25 29 11 l16 32 13 -30
c10 -25 9 -35 -6 -66 -26 -50 -24 -73 7 -97 44 -35 90 -28 136 19 21 23 38 46
38 52 0 6 -17 -7 -38 -30 -31 -34 -46 -42 -74 -42 -41 0 -68 25 -67 61 0 15 3
18 6 9 11 -30 37 -50 64 -50 34 0 93 57 109 106 14 42 25 37 34 -16 6 -40 26
-47 26 -9 0 10 5 19 10 19 6 0 10 -5 10 -11 0 -5 4 -8 9 -4 5 3 12 -4 16 -15
14 -44 35 -9 35 60 0 20 -9 53 -20 75 -24 47 -24 46 -6 39 8 -3 17 -1 21 5 3
6 0 11 -8 11 -8 0 -22 10 -30 23 -14 19 -16 19 -16 4 -1 -16 -4 -16 -41 3 -39
20 -56 38 -24 26 31 -12 54 3 54 35 0 16 5 29 10 29 6 0 10 7 10 15 0 8 -4 15
-10 15 -5 0 -10 6 -10 14 0 17 -38 66 -52 66 -6 0 -5 -6 2 -16 12 -13 10 -14
-13 -3 -21 9 -30 9 -42 -1 -14 -12 -15 -10 -10 12 5 21 2 29 -16 38 -18 10
-23 9 -31 -4 -5 -9 -15 -16 -23 -16 -17 0 -65 -56 -65 -76 0 -9 -4 -12 -10 -9
-15 9 -12 -12 4 -28 13 -13 11 -18 -13 -41 -24 -23 -61 -36 -61 -20 0 3 12 21
26 40 15 19 24 37 21 40 -3 3 3 14 14 25 10 10 19 30 19 44 0 14 12 37 26 52
21 21 32 25 65 20 29 -4 39 -2 39 9 0 15 21 18 58 8 17 -5 20 -9 11 -20 -8
-10 -3 -16 24 -27 43 -19 82 -91 72 -136 -7 -31 12 -111 26 -111 5 0 13 9 19
20 16 30 27 24 43 -24 11 -33 12 -43 3 -40 -9 3 -12 -10 -10 -48 1 -52 -23
-129 -45 -142 -6 -4 -11 -17 -11 -28 0 -12 -3 -19 -6 -15 -6 6 -84 -61 -84
-72 0 -3 11 -6 24 -6 13 0 22 3 20 6 -2 3 10 16 27 28 44 33 78 91 94 162 l15
64 -6 -54 c-6 -67 -24 -103 -78 -160 -22 -24 -32 -39 -21 -33 27 14 70 61 88
97 21 42 39 131 38 183 -1 37 1 42 21 43 13 1 26 1 31 0 4 0 7 12 7 28 0 17 5
33 10 36 8 5 7 11 -1 21 -9 11 -6 16 17 24 16 6 32 17 36 23 15 23 8 64 -14
85 -82 74 -133 134 -158 183 -16 30 -36 62 -46 70 -14 11 -13 5 5 -26 l24 -40
-30 35 c-17 19 -56 52 -87 74 -53 36 -59 38 -113 32 -56 -5 -57 -5 -28 9 17 8
23 14 15 14 -8 0 -25 -5 -38 -13z m119 -26 c24 -13 25 -53 2 -71 -15 -11 -16
-11 -5 1 17 19 15 33 -3 26 -12 -4 -14 0 -9 19 5 21 3 25 -15 25 -16 0 -21 -6
-21 -26 0 -24 -1 -24 -17 -8 -16 15 -16 17 2 30 22 17 40 18 66 4z m254 -278
c11 -2 27 -8 35 -14 11 -6 3 -8 -24 -4 -45 6 -42 4 -50 36 -6 23 -6 24 6 5 7
-11 22 -22 33 -23z m-352 -36 c-4 -17 -10 -23 -20 -19 -9 4 -22 -2 -29 -12 -8
-10 -14 -14 -14 -9 0 18 40 57 66 64 1 0 -1 -11 -3 -24z m237 -15 c-14 -27
-36 -40 -27 -17 4 10 7 22 7 27 0 5 7 9 15 9 12 0 14 -4 5 -19z m-124 -9 c6
-4 14 -18 18 -32 6 -23 6 -24 -7 -7 -16 20 -44 14 -50 -11 -3 -10 -5 -7 -6 9
0 14 4 30 11 37 14 14 19 14 34 4z m-79 -33 c7 -17 9 -37 6 -45 -3 -8 0 -14 6
-14 24 0 9 -36 -24 -58 -45 -29 -87 -37 -114 -23 -16 9 -21 9 -21 -1 0 -7 -5
-5 -11 6 -17 28 2 59 65 105 30 22 57 45 61 51 11 17 20 11 32 -21z m314 -41
c5 -10 7 -29 3 -41 -7 -24 -33 -57 -44 -57 -14 0 -20 32 -9 48 10 16 10 16 5
0 -3 -12 -1 -15 10 -11 9 3 14 13 11 24 -3 10 0 20 6 22 8 2 7 6 -1 11 -7 4
-23 -4 -37 -18 -14 -15 -28 -26 -30 -26 -9 0 9 40 26 59 21 23 44 19 60 -11z
m-291 -72 c0 -2 -8 -10 -17 -17 -16 -13 -17 -12 -4 4 13 16 21 21 21 13z m-73
-102 c3 -8 12 -13 19 -10 8 3 14 1 14 -4 0 -11 -93 -14 -103 -3 -12 11 14 33
40 33 13 0 26 -7 30 -16z m-47 -60 c0 -8 -4 -12 -10 -9 -5 3 -10 13 -10 21 0
8 5 12 10 9 6 -3 10 -13 10 -21z m90 11 c0 -8 -7 -15 -15 -15 -16 0 -20 12 -8
23 11 12 23 8 23 -8z m34 3 c-3 -4 -9 -8 -15 -8 -5 0 -9 4 -9 8 0 5 7 9 15 9
8 0 12 -4 9 -9z m-74 -14 c0 -9 -7 -14 -17 -12 -25 5 -28 28 -4 28 12 0 21 -6
21 -16z m48 -60 c-7 -8 -28 -17 -47 -20 -29 -6 -33 -5 -29 12 3 14 11 18 31
16 15 -1 27 2 27 7 0 6 7 8 16 4 13 -5 13 -8 2 -19z m-28 -44 c0 -6 -16 -10
-36 -10 -19 0 -33 3 -31 8 8 11 67 13 67 2z"/>
<path d="M508 963 c7 -3 16 -2 19 1 4 3 -2 6 -13 5 -11 0 -14 -3 -6 -6z"/>
<path d="M493 23 c9 -2 23 -2 30 0 6 3 -1 5 -18 5 -16 0 -22 -2 -12 -5z"/>
</g>
</svg>
