<?xml version="1.0" standalone="no"?>
<!DOCTYPE svg PUBLIC "-//W3C//DTD SVG 1.1//EN" "http://www.w3.org/Graphics/SVG/1.1/DTD/svg11.dtd" >
<svg>
<metadata>
Created by FontForge 20110222 at Mon Mar  7 12:44:55 2011
 By www-data
Copyright(c)1998, Exclamat!ons. http://www.boutons.com. CharityWare.
</metadata>
<defs>
<font id="GreekDinerInlineTT" horiz-adv-x="778" >
  <font-face 
    font-family="Greek Diner Inline TT"
    font-weight="400"
    font-stretch="normal"
    units-per-em="2048"
    panose-1="2 11 5 0 0 0 0 0 0 0"
    ascent="1638"
    descent="-410"
    x-height="1481"
    cap-height="1446"
    bbox="41 -272 2255 1657"
    underline-thickness="50"
    underline-position="-75"
    unicode-range="U+0020-2022"
  />
    <missing-glyph />
    <glyph glyph-name="space" unicode=" " horiz-adv-x="727" 
 />
    <glyph glyph-name="exclam" unicode="!" horiz-adv-x="582" 
d="M41 1483l500 -21q-13 -114 -35 -250.5t-43.5 -270.5t-38 -252.5t-21.5 -184.5q-184 -8 -274 -21q-21 185 -37.5 364t-31.5 373.5t-19 262.5zM88 2v309h346v-309h-346zM238 190v-77h65v77h-65zM246 1288q-5 -112 -7.5 -281t-2.5 -395l63 2q1 57 3 155t4 182t5 168.5
t6 168.5h-71z" />
    <glyph glyph-name="quotedbl" unicode="&#x22;" 
d="M41 1012l104 463l246 -97l-201 -426zM332 1059l205 416l200 -134l-276 -366zM104 1047l62 -23l110 311l-65 23zM385 1073l55 -35l176 287l-55 35z" />
    <glyph glyph-name="dollar" unicode="$" horiz-adv-x="1014" 
d="M395 1657l8 -295q-134 -40 -248 -142.5t-114 -226.5q1 -70 32 -125.5t74 -91.5t97 -69q23 -15 101 -54.5t117.5 -72.5t39.5 -76q0 -25 -25 -43q-60 -39 -178.5 -67.5t-253.5 -28.5l33 -336q47 7 115.5 17.5t127.5 22t82 21.5l-8 -256h267l-9 311q61 30 135 86t129.5 135
t55.5 171q0 34 -8 63q-11 77 -71.5 139t-119 94.5t-112.5 53.5q-16 8 -52 27.5t-66 45.5t-30 52q9 54 77 82t153.5 36.5t170.5 10.5l-20 338q-135 -18 -242 -41q9 164 9 219h-267zM494 1567l67 -2l2 -258l6 -4q97 23 219 36l3 -71q-148 -8 -332 -67t-187 -197
q0 -62 62 -107.5t195.5 -114.5t200.5 -124t67 -128q-1 -82 -64.5 -150.5t-177.5 -117.5v-344h-66l-2 315l-2 5q-163 -46 -305 -64l-6 68q148 10 276.5 51t204.5 102.5t76 130.5q0 55 -63 98.5t-194 110t-200.5 123.5t-70.5 129q0 62 20 111t82 96t189 92v281z" />
    <glyph glyph-name="ampersand" unicode="&#x26;" horiz-adv-x="1608" 
d="M45 334q7 84 48 159.5t102.5 141t134.5 125.5q-57 63 -83.5 114.5t-29.5 114.5q0 95 66 185q51 65 144 122.5t219 100.5t267 67q14 1 55.5 7.5t78.5 9.5l38 -346q-107 0 -200 -9.5t-164 -40t-72 -88.5q12 -47 33 -75t66 -66q51 -45 178 -141t159 -121q22 31 50 80.5
t56.5 102t45.5 83.5l305 -188q-98 -140 -205 -250l230 -162l-242 -315q-85 52 -270 190q-223 -176 -537 -176q-337 0 -438 193q-33 65 -39 157q4 13 4 25zM528 569q-34 -39 -48 -78.5t-25 -101.5q4 -44 27.5 -74.5t62 -46t80.5 -16.5q88 23 121.5 34.5t78.5 43.5
q-45 33 -86.5 64t-79.5 62t-58 49t-73 64zM918 1331q-141 -27 -248 -61.5t-180.5 -99t-73.5 -166.5q3 -85 84 -199v-8q-289 -289 -297 -469q0 -109 94 -177.5t223 -70.5q287 0 545 239q111 -77 248 -159l35 55q-106 72 -236 152q66 69 125 140t113 146l-58 35
q-96 -131 -237 -282q-163 117 -289 222.5t-202.5 202.5t-80.5 179q0 90 116 154.5t329 97.5zM545 745q58 -61 135.5 -130.5t157 -131.5t166.5 -121q-121 -107 -238.5 -162t-222.5 -55q-124 0 -221 76q-48 39 -48 101q0 57 36 128t98 147.5t137 147.5z" />
    <glyph glyph-name="quotesingle" unicode="'" horiz-adv-x="449" 
d="M41 1018l119 457l248 -113l-224 -410zM291 1329l-64 27l-129 -305l62 -25z" />
    <glyph glyph-name="parenleft" unicode="(" horiz-adv-x="727" 
d="M475 1622l195 -221q-99 -84 -162 -191.5t-92 -230t-29 -254.5q0 -406 299 -657l-211 -228q-207 141 -320.5 371.5t-113.5 488.5q1 144 33 279.5t88.5 252.5t136 216.5t176.5 173.5zM465 1464q-138 -171 -213.5 -373.5t-75.5 -412.5q5 -342 293 -658l45 48
q-260 306 -260 589q0 443 260 758z" />
    <glyph glyph-name="parenright" unicode=")" horiz-adv-x="723" 
d="M250 -145l-195 223q47 42 87.5 85.5t86.5 123.5t76.5 199.5t30.5 275.5q0 135 -36 249t-87 194.5t-98.5 132t-73.5 69.5l209 229q70 -45 142.5 -120.5t138.5 -183.5t108.5 -248t42.5 -302q0 -174 -42.5 -326.5t-109 -270.5t-141 -202.5t-139.5 -127.5zM199 80l51 -57
q68 81 137.5 201.5t114.5 255.5t45 251q0 102 -16.5 189.5t-52.5 177t-91.5 181t-132.5 189.5l-47 -57q77 -84 137.5 -193.5t94.5 -230t34 -239.5q0 -85 -23 -182t-63 -189t-87.5 -166.5t-100.5 -130.5z" />
    <glyph glyph-name="comma" unicode="," horiz-adv-x="526" 
d="M41 -203l137 543l307 -141l-299 -467zM313 143l-61 29l-146 -330l60 -24z" />
    <glyph glyph-name="hyphen" unicode="-" horiz-adv-x="786" 
d="M51 578l-10 319q53 -1 287 -2t411 -2l6 -291q-55 0 -232.5 -5.5t-311 -11.5t-150.5 -7zM162 774l2 -65l475 6v67z" />
    <glyph glyph-name="period" unicode="." horiz-adv-x="424" 
d="M41 0v317h342v-317h-342zM246 125v65h-66v-65h66z" />
    <glyph glyph-name="slash" unicode="/" horiz-adv-x="1118" 
d="M227 -37l-186 133l200 325t230 374t270.5 438.5t139.5 226.5l196 -121q-99 -142 -193 -288t-176 -279.5t-237.5 -396.5t-243.5 -412zM907 1356l-764 -1237l58 -37l766 1237z" />
    <glyph glyph-name="zero" unicode="0" horiz-adv-x="1642" 
d="M825 1092q127 0 214 -82.5t87 -264.5q0 -101 -33.5 -187t-102 -137t-165.5 -52q-71 0 -140.5 32t-119 116.5t-49.5 227.5q4 91 31 156.5t71 107.5t97.5 61.5t109.5 21.5zM825 1425q330 0 518 -143q123 -95 191 -226t68 -311q-2 -142 -53.5 -269.5t-151 -227
t-245.5 -156.5t-327 -57q-250 0 -426.5 83t-267 234t-90.5 350q1 11 1.5 20t0.5 23q10 164 79.5 293.5t180 214.5t245.5 128.5t277 43.5zM829 1229q-144 0 -262.5 -68t-186 -180t-69.5 -242q0 -143 66 -260.5t183.5 -183.5t264.5 -66q119 0 235.5 69.5t190.5 187t74 251.5
q0 87 -28.5 174t-87.5 158t-155.5 115.5t-224.5 44.5zM834 1296q-103 0 -208.5 -39t-193.5 -113t-140 -180t-52 -235q0 -103 40 -204t118 -185.5t186.5 -133t244.5 -48.5q100 0 201 46t182 124.5t130 183t49 219.5q0 177 -78 305t-207 194t-272 66z" />
    <glyph glyph-name="one" unicode="1" horiz-adv-x="885" 
d="M41 1174q140 66 317 146.5t269 123t176 82.5l41 -29q-2 -144 -3.5 -214.5t-4.5 -197.5t-5 -219.5t-4 -240.5q3 -121 6 -245t3 -251q0 -88 4 -129h-473q4 193 4 477q4 156 4 533q-74 -25 -230 -103q-19 53 -48.5 127t-55.5 140zM238 1071l329 148l-2 -998h66l2 1102
l-420 -190z" />
    <glyph glyph-name="two" unicode="2" horiz-adv-x="1233" 
d="M133 1163l68 342q132 -11 263 -36t262 -75t232 -131.5t144 -195.5q20 -51 20 -133q0 -66 -8 -98q-28 -130 -106.5 -229t-161.5 -160.5t-109 -79.5v-21l455 29v-387q-183 8 -352.5 11t-350 4t-417.5 1l-31 72q56 50 181 162t212.5 207t147 197.5t59.5 193.5
q0 173 -153.5 246t-354.5 81zM309 1358l-12 -64q108 -23 236 -73.5t228 -135t101 -192.5q0 -106 -73 -219t-169.5 -207.5t-201.5 -178t-111 -89.5v-76l711 29v65l-608 -22v4q29 23 127.5 102.5t186.5 174.5t147 202.5t59 214.5q0 125 -89 217t-225 149.5t-307 98.5z" />
    <glyph glyph-name="three" unicode="3" horiz-adv-x="1067" 
d="M971 1171q8 -40 8 -71q0 -71 -41.5 -140.5t-108 -122t-133.5 -71.5v-12q142 -40 236 -111t94 -194q0 -151 -113 -250.5t-284 -169.5q-38 -16 -122.5 -38.5t-202.5 -39.5t-251 -17l-12 324h47q241 0 369 90q63 47 63 111q0 20 -12 53t-51 51q-56 32 -116.5 46.5
t-170.5 17.5l-14 186q123 4 229.5 47t106.5 148q0 69 -82 104q-55 25 -104 36.5t-107 16t-115 6.5l29 324q207 -10 330.5 -27.5t248.5 -62.5q116 -41 189 -103t90 -131zM750 412q0 -85 -102 -148t-240 -95t-232 -32l4 -74q314 34 475.5 124.5t161.5 228.5q0 154 -174 237
q-93 48 -233 70v4q188 44 276.5 118t89.5 191q0 103 -70.5 171.5t-193 107t-301.5 57.5l-8 -65q194 -20 349 -75.5t159 -193.5q0 -67 -45 -115t-116.5 -79t-145 -49.5t-185.5 -40.5l8 -78q45 0 126.5 -8t171 -33t157.5 -81t68 -142z" />
    <glyph glyph-name="four" unicode="4" horiz-adv-x="1440" 
d="M768 520h-287q56 75 110 144.5t85.5 112.5t87.5 126h4v-383zM41 416q125 157 223.5 280.5t203.5 256t244 307t210 264.5l247 -58v-942l230 8l-10 -307l-220 8l5 -231h-426q1 36 4.5 103t3.5 128h-647zM938 168l68 2l-2 168h274v68h-274v948l-68 22l-766 -968l33 -70
l735 2v-172zM938 406v866l-682 -866h682z" />
    <glyph glyph-name="five" unicode="5" horiz-adv-x="1096" 
d="M88 698l92 764q381 6 854 33l4 -375l-544 25l-27 -150q150 -9 280.5 -48.5t219 -129t88.5 -233.5q0 -68 -33 -141.5t-105.5 -149.5t-175.5 -139q-121 -76 -298 -131.5t-347 -71.5l-55 340q135 7 208 27.5t175 62.5q45 16 81 57.5t36 89.5q-2 25 -13.5 49.5t-36.5 43.5
t-67 28q-66 23 -137.5 33t-198.5 16zM909 1354l-598 -19l-61 -497q156 -26 270 -61t190.5 -95t77.5 -145q0 -69 -64 -140t-199.5 -134t-331.5 -103l14 -66q200 40 348.5 105t225.5 149t77 180q-1 153 -142 234t-392 133l49 373l536 16v70z" />
    <glyph glyph-name="six" unicode="6" horiz-adv-x="1327" 
d="M786 1544l213 -317q-20 -12 -71.5 -42.5t-94.5 -61t-91 -75.5t-93 -108q106 -2 217.5 -29.5t207 -84.5t154 -144t58.5 -203q0 -118 -54.5 -214t-147 -163t-208 -102t-227.5 -35q-131 1 -240 31.5t-187 90t-123 150t-54 212.5q0 16 -4 26q12 151 61 290t132 266.5
t190 235.5t225 191q76 58 137 86zM553 694q-47 -101 -47 -245q0 -101 49 -150t111 -53q32 0 71 19t66.5 64.5t27.5 119.5q0 89 -62.5 164.5t-215.5 80.5zM387 817q66 -5 176 -28t211 -63.5t173 -106.5t75 -150q0 -78 -57 -159.5t-142 -136t-161 -54.5q-78 0 -158 53.5
t-132.5 149t-52.5 206.5q4 94 15.5 152t52.5 137zM758 1333q-86 -70 -153 -132t-133.5 -140.5t-125.5 -173.5q-94 -152 -94 -365q0 -41 2 -61q6 -99 66.5 -196.5t153 -158.5t185.5 -61q74 1 151.5 40t141.5 103t101 138.5t37 148.5q0 59 -31 111t-82.5 96t-114.5 78
q-52 28 -132.5 52.5t-163 41.5t-132.5 25l-4 8q161 224 367 387z" />
    <glyph glyph-name="seven" unicode="7" horiz-adv-x="1245" 
d="M1182 1460l22 -33q-135 -332 -174.5 -429t-114 -281.5t-166 -421.5t-137.5 -363l-428 181q85 168 138 271t127.5 250t123.5 245.5t113 230.5h-637l-8 371q219 -6 351 -9t277.5 -6t291.5 -4.5t221 -1.5zM221 1319l2 -66l688 -2l-458 -1015l61 -27l498 1106z" />
    <glyph glyph-name="eight" unicode="8" horiz-adv-x="1341" 
d="M664 1497q145 0 281 -27t233.5 -107t97.5 -224q0 -121 -68 -218t-182 -149q263 -111 274 -362q0 -91 -40 -171t-118.5 -139.5t-198 -95.5t-275.5 -37q-192 1 -315 36t-189.5 92t-92.5 123t-30 140q0 88 32 163.5t89 134t137 100.5q-121 49 -179.5 143.5t-62.5 190.5
q0 108 58 187t152.5 128t198 70.5t198.5 21.5zM664 1268q-67 -3 -114.5 -46t-53.5 -132q0 -97 50.5 -155t117.5 -58q89 6 131 64.5t47 148.5q0 71 -39.5 124.5t-138.5 53.5zM664 637q-88 -9 -135.5 -71t-47.5 -156q0 -101 55.5 -155t127.5 -54q89 0 138 60t56 149
q0 62 -24.5 115t-66.5 82.5t-91 29.5h-12zM676 1417q-97 0 -181 -27t-142.5 -74.5t-89 -108t-30.5 -124.5q4 -84 75 -166t167 -129v-8q-126 -118 -189 -212t-63 -177q2 -103 51.5 -182t146.5 -123.5t234 -44.5q109 1 197.5 31.5t150.5 80t94.5 111.5t32.5 125
q-3 203 -262 391v8q95 45 157 130t62 180q0 151 -102 235t-309 84zM776 762q63 -45 127 -101t111.5 -125.5t48.5 -140.5q0 -80 -57.5 -146t-151 -103t-201.5 -37q-81 2 -145 20t-113 55t-74.5 88.5t-27.5 120.5q0 66 48.5 133t126 144.5t91.5 103.5l-2 39q-256 157 -256 279
q2 57 47 119t130.5 101.5t199.5 39.5q112 0 190 -28t116 -83t38 -135q0 -180 -248 -291z" />
    <glyph glyph-name="nine" unicode="9" horiz-adv-x="1309" 
d="M537 -68l-207 314q98 57 182 117t152 153q-114 0 -223.5 28t-201 86.5t-145 147.5t-53.5 205q0 143 93 265t241 191.5t297 69.5q230 -3 362.5 -81t183 -192.5t50.5 -238.5q-1 -263 -164.5 -518t-431.5 -463q-70 -52 -135 -84zM776 760q47 101 47 250q0 105 -43.5 157
t-117.5 54q-57 0 -110.5 -52t-53.5 -159q0 -54 23.5 -110t86.5 -97.5t168 -42.5zM934 657q-286 8 -457 92.5t-178 256.5q0 55 33.5 115t88 108t119 77t119.5 29q79 0 160 -49.5t133 -139t52 -200.5q-4 -79 -16.5 -145.5t-53.5 -143.5zM563 141q86 70 154.5 133.5
t134.5 141.5t123 172q96 153 96 373q0 34 -2 53q-4 74 -40 144.5t-95.5 128t-129.5 90t-142 32.5q-100 -1 -200 -62.5t-165.5 -157t-65.5 -190.5q0 -88 65 -181.5t155 -143.5q51 -29 131.5 -44t180.5 -22.5t124 -11.5l4 -8q-155 -220 -365 -387z" />
    <glyph glyph-name="colon" unicode=":" horiz-adv-x="416" 
d="M41 0v309h334v-309h-334zM41 713v309h334v-309h-334zM244 195h-68v-82h68v82zM244 903h-68v-74h68v74z" />
    <glyph glyph-name="semicolon" unicode=";" horiz-adv-x="498" 
d="M41 -207l133 529l283 -129l-293 -465zM115 707v307h329v-307h-329z" />
    <glyph glyph-name="question" unicode="?" horiz-adv-x="989" 
d="M41 1190l49 315q54 -5 135.5 -18t181 -35.5t166.5 -46.5q146 -52 229 -118.5t114.5 -140.5t31.5 -163q-11 -109 -76.5 -202.5t-164 -161.5t-210 -112.5t-218.5 -64.5l-80 246q125 42 198.5 102t73.5 168q0 50 -42 104.5t-150 88.5q-46 15 -90.5 22.5t-147.5 16.5z
M227 309h346v-309h-346v309zM371 184v-69h65v69h-65zM326 629l20 -66q194 80 299 171t105 202q0 156 -146 259t-414 167l-8 -66q229 -58 363.5 -145.5t134.5 -210.5q-1 -65 -48 -122t-121 -100t-185 -89z" />
    <glyph glyph-name="A" unicode="A" horiz-adv-x="1817" 
d="M866 1186l-600 -1006l60 -33l104 179l913 51l123 -195l60 33l-621 971h-39zM41 145q119 199 222.5 373t210 353.5t168 282t226.5 370.5h23q87 -131 192 -292.5t227 -350.5t237.5 -366t228.5 -345l-406 -238q-30 48 -55 90.5t-61.5 107t-65.5 116.5l-623 -37
q-37 -75 -73.5 -154t-59.5 -127zM696 514l351 21q-42 79 -77 148t-59 117.5t-39 80.5q-24 -50 -39.5 -81.5t-35.5 -73t-46 -96.5t-55 -116zM473 395l412 695l420 -650z" />
    <glyph glyph-name="B" unicode="B" horiz-adv-x="1266" 
d="M1225 440q-6 -88 -53.5 -152.5t-105 -102t-159.5 -89.5q-51 -25 -122.5 -46t-158 -36.5t-165.5 -22.5t-131 -7q-41 0 -143 -2t-146 -2q10 271 10 653q0 203 -2 373t-8 442q98 -1 204 -1.5t237 -7t239.5 -22.5t181.5 -45q136 -51 196 -121t60 -194q-4 -68 -55 -129.5
t-111 -101t-90 -46.5v-12q58 -8 132.5 -44.5t132 -108t57.5 -175.5zM477 633q161 -3 224 -63t63 -130q0 -37 -30.5 -84t-96 -83t-160.5 -42v402zM477 1217q236 0 236 -160q0 -76 -42.5 -127.5t-98.5 -77t-95 -25.5v390zM223 1362l4 -1286l242 -2q146 0 270 48.5t197.5 131
t77.5 180.5q0 103 -77 177t-206 112v10q240 142 240 338q-4 98 -78.5 165t-206 99.5t-303.5 32.5q-76 0 -160 -6zM289 1298v-530l217 -2q77 0 115 4t75 20t80 52q66 56 97.5 105.5t31.5 113.5q-3 132 -143 187t-354 55q-21 0 -119 -5zM293 700l-2 -557q76 -6 149 -6
q119 0 216.5 23.5t162.5 77.5q73 61 103 99t30 101q0 91 -83.5 151t-213 86.5t-274.5 26.5q-59 0 -88 -2z" />
    <glyph glyph-name="C" unicode="C" horiz-adv-x="1255" 
d="M1067 1481l92 -402q-191 -29 -330 -98t-211.5 -161.5t-72.5 -188.5q0 -81 51 -150t159.5 -111.5t266.5 -43.5q128 9 174 12l18 -375q-115 -16 -260 -16q-254 0 -454 72t-317 199t-138 286q-4 40 -4 65q0 135 64.5 273t192 262t324.5 223.5t445 153.5zM946 1221l-14 65
q-136 -42 -252 -100.5t-212 -141t-153 -192.5t-57 -248q4 -128 53.5 -223t142 -157.5t225 -94t304.5 -31.5h59l-4 66q-24 0 -38 -0.5t-31 -1.5q-157 0 -280.5 31t-209.5 92q-155 108 -155 321q1 173 93 295t225.5 194.5t303.5 125.5z" />
    <glyph glyph-name="D" unicode="D" horiz-adv-x="1522" 
d="M41 -90q2 136 3.5 239.5t3 208.5t2.5 176t1 214q0 107 -4 319t-4 319q666 0 946 -65q130 -32 242.5 -98.5t181 -170t68.5 -237.5q0 -135 -52.5 -257.5t-145.5 -223t-209 -173.5t-247 -120q-82 -31 -169.5 -53.5t-193.5 -39.5t-203 -26t-220 -12zM508 1055
q176 0 282 -39.5t152.5 -112t46.5 -176.5q0 -114 -72.5 -209.5t-185 -155.5t-223.5 -77v770zM250 1241l-6 -1194q215 9 403 67.5t331.5 158.5t225.5 235.5t88 292.5q0 177 -164 291q-125 88 -299 120.5t-401 32.5q-64 0 -178 -4zM315 1176l-4 -1057q193 10 362 71t292.5 157
t190.5 210.5t67 226.5q0 77 -33 148q-31 65 -107 112.5t-177.5 76.5t-222 43t-257.5 14q-74 0 -111 -2z" />
    <glyph glyph-name="E" unicode="E" horiz-adv-x="1016" 
d="M821 94v68l-510 4l-2 508h418v65l-418 2l-2 523l488 16l-2 68l-551 -19l4 -1229zM41 1448q165 6 889 37l8 -340q-50 -2 -140 -4t-158 -3.5t-142 -2.5v-277q79 4 129 6t110 5.5t131 9.5l4 -332q-100 0 -374 8v-246q151 0 231 -4q40 2 117 4t117 4l12 -354l-934 21
q6 367 6 765q0 343 -6 703z" />
    <glyph glyph-name="F" unicode="F" horiz-adv-x="997" 
d="M41 1448q50 1 201 5t377.5 11.5t328.5 12.5l8 -338q-33 -1 -99.5 -3t-113.5 -3.5t-112 -3t-133 -3.5v-321q73 4 209.5 10t205.5 10l9 -325q-285 0 -424 4l4 -524h-461v1468zM242 119h65l-2 504h473l-2 67l-471 -2l-2 578l504 12l-2 65l-567 -12q1 -96 1.5 -248t1 -307
t1 -333.5t0.5 -323.5z" />
    <glyph glyph-name="G" unicode="G" horiz-adv-x="1395" 
d="M1108 1487l96 -404q-236 -35 -424 -145q-102 -59 -181 -158t-79 -198q0 -102 92 -181q69 -59 136.5 -76.5t156.5 -21.5q0 207 -4 340h449l4 -649q-221 -45 -416 -45q-155 0 -284 16.5t-248 66.5t-209 142q-156 164 -156 379q0 142 67.5 282t178.5 248q66 66 144.5 123
t177 108t224 94.5t275.5 78.5zM965 1200l-17 62q-111 -37 -211 -87.5t-187.5 -113.5t-160.5 -137q-147 -148 -147 -308q0 -82 40 -167t119 -168q202 -199 461 -199q71 0 147 11.5t152 35.5v338h-65v-291q-91 -21 -203 -29q-268 0 -459 191q-127 151 -127 278q0 131 129 261
q105 106 235 185.5t294 137.5z" />
    <glyph glyph-name="H" unicode="H" horiz-adv-x="1571" 
d="M41 1446q6 -253 8 -421t2 -372q0 -114 -0.5 -199t-1.5 -156t-1.5 -140.5t-0.5 -180.5h481q-4 191 -6 307.5t-2 252.5l539 41q0 -207 -4 -304q0 -180 -4 -297h479q-1 121 -2.5 261t-2.5 273t-3 265q2 110 3 192t1.5 152.5l1 141t2.5 184.5h-479q2 -43 4 -129t2 -140.5
t0.5 -119.5t1.5 -129l-539 -41q0 186 1.5 310.5t6.5 248.5h-487zM246 1260h65l2 -539l951 86l-2 467l65 -2l4 -1110h-67v577l-953 -84l4 -489h-65z" />
    <glyph glyph-name="I" unicode="I" horiz-adv-x="563" 
d="M41 1446q2 -134 3 -369t1 -438q0 -165 -1 -356.5t-3 -302.5h481q-8 520 -12 782q1 87 3 172t3.5 170.5l3 171t2.5 170.5h-481zM244 1243l65 -2l4 -1065l-65 2z" />
    <glyph glyph-name="J" unicode="J" horiz-adv-x="844" 
d="M317 1466h486q-4 -89 -6 -157t-3.5 -144.5t-3.5 -166.5t-4 -140q5 -96 5 -254q0 -215 -72 -383q-78 -166 -184 -265.5t-277 -193.5l-217 357q54 28 101 64.5t83 80.5t60.5 98t31.5 113q13 62 13 199q0 133 -0.5 259t-3.5 265t-9 268zM281 57l36 -55q113 97 201 243.5
t88 291.5l-2 729h-63l2 -750q0 -71 -42.5 -163.5t-105 -173.5t-114.5 -122z" />
    <glyph glyph-name="K" unicode="K" horiz-adv-x="1468" 
d="M518 655h-8q0 -69 -4 -106q2 -77 4 -137t5 -132.5t5 -169.5t2 -151h-481q0 79 2 241t3.5 244.5t3 206t1.5 291.5q0 113 -1 186t-3 160.5t-6 175.5h481q-3 -168 -7.5 -345.5t-4.5 -330.5h8q161 208 549 689l342 -301l-434 -449q58 -63 116 -124.5t108.5 -114.5t118 -125.5
t109.5 -118.5l-364 -316q-67 90 -137 180t-138.5 180.5t-141 189t-128.5 177.5zM246 1266l-4 -1131l65 2l4 1129h-65zM1081 1194l-407 -489l428 -492l51 43l-391 451l371 442z" />
    <glyph glyph-name="L" unicode="L" horiz-adv-x="1018" 
d="M41 1450h483q-4 -138 -6 -314.5t-3 -300.5t-1 -239.5t-2 -255.5q58 0 98 0.5t119.5 2t148 3t99.5 2.5v-383q-96 1 -350 8.5t-353 10t-233 2.5q1 58 2.5 134.5t2 143.5t1 172t0.5 254q0 319 -6 760zM813 190l-500 3l-2 1062h-65l2 -1132l565 -2v69z" />
    <glyph glyph-name="M" unicode="M" horiz-adv-x="2284" 
d="M264 154l363 991l491 -742l471 711l410 -913l-62 -27l-358 799l-461 -690l-473 716l-319 -868zM612 1489q-50 -120 -117 -283t-148 -364t-161.5 -403t-144.5 -371q68 -25 142.5 -53.5t134.5 -50t128 -48.5q36 112 60 189.5t55.5 184t67.5 228.5t39 133
q88 -145 120.5 -199t72.5 -117.5t99.5 -156t114.5 -178.5h23q54 76 106.5 152.5t123 183.5t113 171.5t101.5 151.5q27 -72 61 -163t73.5 -196t78 -204.5t70.5 -179.5l418 184l-138 303l-475 1053h-22l-482 -780l-493 813h-21z" />
    <glyph glyph-name="N" unicode="N" horiz-adv-x="1628" 
d="M123 1475l20 12q44 -32 244 -180.5t318 -237t243.5 -182t225.5 -168.5q0 129 -9 530q4 78 4 221l418 -8q-8 -124 -21.5 -342t-22 -385.5t-18 -349t-22.5 -420.5l-20 -8q-89 63 -171.5 122.5t-242.5 180t-269 205.5t-343 264q0 -111 0.5 -187t1.5 -157t1.5 -179t0.5 -224
l-420 16q10 187 19.5 366t20 367.5t19 339.5t23.5 404zM285 147l41 889l1056 -784l35 1061l-65 2l-31 -936l-1057 786l-45 -1018h66z" />
    <glyph glyph-name="O" unicode="O" horiz-adv-x="1782" 
d="M895 1176q-97 -6 -174 -61.5t-121.5 -153t-50.5 -220.5q0 -147 41.5 -250.5t114 -154.5t161.5 -53q13 4 29 4q183 16 258.5 147t79.5 307q0 215 -85.5 325t-232.5 110h-20zM895 1495q229 0 358 -41q120 -36 213.5 -103t154 -157.5t90.5 -203.5t30 -249
q-5 -143 -60.5 -279.5t-162 -244t-264.5 -173.5t-359 -75q-260 0 -453 94.5t-296 254.5t-105 348q4 28 4 75q20 182 100.5 326.5t200 238.5t261.5 141.5t288 47.5zM956 1380q-133 0 -259 -53.5t-223 -145.5t-156.5 -209t-65.5 -237q0 -154 97 -307t248 -250.5t296 -97.5
q149 0 298 96.5t248 247.5t103 299q0 122 -44.5 238.5t-123 209.5t-187.5 150.5t-231 58.5zM952 1309q106 0 201.5 -49t168.5 -132t113 -183.5t40 -205.5q-6 -132 -92 -270t-218 -228t-262 -91q-132 0 -270.5 85.5t-229 219t-90.5 270.5q4 116 56.5 220.5t144 187.5
t206 129.5t232.5 46.5z" />
    <glyph glyph-name="P" unicode="P" horiz-adv-x="1288" 
d="M498 369l4 -363h-461q8 320 8 486q0 165 -1 268t-3 246t-3 244.5t-1 219.5q104 -1 298.5 -3.5t340.5 -19.5t270 -59t197 -118q41 -40 69 -102t31 -136q0 -189 -122 -335.5t-296.5 -228.5t-330.5 -99zM498 1180l4 -518q33 0 101.5 34.5t122.5 98.5t54 149q0 77 -38.5 128
t-103.5 76.5t-140 31.5zM231 195l68 -2v243q175 22 313.5 73t236 122.5t148.5 151.5t56 159q0 63 -20 126.5t-60 107.5q-159 172 -742 182v-1163zM299 1288q186 -2 359 -34.5t262 -129.5q61 -67 61 -159q0 -55 -23 -110t-67 -99q-50 -52 -119 -94t-151.5 -75.5t-163 -54.5
t-162.5 -30z" />
    <glyph glyph-name="Q" unicode="Q" horiz-adv-x="1845" 
d="M911 1174q-112 0 -195.5 -66t-127 -172.5t-43.5 -226.5q0 -213 67 -308q45 -64 103.5 -95t136.5 -34q22 4 59 4q83 9 153.5 61t114.5 146.5t50 225.5v45q0 200 -80.5 308.5t-237.5 111.5zM911 1493q229 0 415 -76.5t296.5 -239t110.5 -409.5q0 -121 -44 -250t-129 -231.5
t-196 -143.5v-16l440 -10l-43 -348q-52 11 -268 62t-306 71.5t-196.5 39t-187.5 21.5q-136 9 -264.5 48t-241.5 122t-184.5 227t-71.5 349q0 109 37 222t110 215.5t170 174.5q115 78 252 123.5t301 48.5zM922 1386q-115 0 -230.5 -62t-213 -164.5t-156 -223t-62.5 -231.5
q0 -144 75.5 -280.5t201 -228t266.5 -104.5v-10l860 -158l6 68l-620 108v6q110 40 200 115.5t153.5 170.5t96.5 191t33 171q-1 117 -49 232t-128.5 203.5t-194 142.5t-238.5 54zM946 1313q135 0 253 -85t188.5 -214t70.5 -246q-3 -101 -48 -208t-122 -197t-174.5 -147
t-206.5 -64q-135 0 -268.5 75.5t-218 200t-84.5 256.5q3 106 53.5 218.5t135.5 204.5t195.5 148.5t225.5 57.5z" />
    <glyph glyph-name="R" unicode="R" horiz-adv-x="1477" 
d="M1436 217l-377 -283l-506 748q72 36 124 87.5t81.5 111t29.5 110.5q0 85 -70 137t-220 52l12 -1178h-461v522q0 156 -0.5 273.5t-1.5 216.5t-2.5 197.5t-3.5 254.5h104q228 0 391 -7.5t318 -34t266 -86t135 -158.5q13 -51 13 -107q0 -105 -62 -200.5t-205 -198.5
q63 -71 105 -114t107 -107t117 -119t106 -117zM311 184l-2 1116q283 -2 475 -52t211 -165q4 -28 4 -41q0 -82 -62 -168t-192 -188l365 -496l53 43l-325 443q235 193 235 371q0 93 -69 165q-69 76 -245.5 117t-408.5 41q-71 0 -106 -2v-1184h67z" />
    <glyph glyph-name="S" unicode="S" horiz-adv-x="1065" 
d="M162 1223q60 58 151.5 113.5t233.5 100.5t323 62l58 -346q-144 -8 -209 -14.5t-121.5 -33.5t-56.5 -81q0 -21 20 -39.5t60.5 -41t89.5 -47t84 -46.5q229 -126 229 -305q0 -11 -2 -31t-2 -31q-15 -96 -83 -183t-184 -159t-263 -117.5t-328 -62.5l-58 350q15 0 24 -0.5
t19 -1.5q86 0 172 17t145 51t60 80q0 26 -34.5 54.5t-114 75t-115.5 70.5q-212 130 -219 308q3 76 37 140t84 118zM772 1282v2l-10 66q-76 -17 -160.5 -44.5t-159.5 -69t-126 -105.5t-52 -148q0 -76 65.5 -133.5t191.5 -124t188.5 -111.5t62.5 -100q-4 -56 -42 -105
t-102.5 -88.5t-153 -73.5t-193.5 -61l10 -65l-12 67l14 -71q177 46 291 99.5t179 125t77 164.5q0 79 -66.5 138t-196 130t-186.5 112t-57 95q0 66 53.5 125.5t153 105.5t231.5 70z" />
    <glyph glyph-name="T" unicode="T" horiz-adv-x="1452" 
d="M41 1096v358q246 -8 750 -16q409 8 620 16v-358q-102 3 -161.5 4.5t-122.5 3t-171 4.5q9 -774 9 -1110h-476v543q5 178 5 567q-336 -7 -453 -12zM166 1315v-68h528v-1069l68 2l-2 1067l528 -2l2 70h-1124z" />
    <glyph glyph-name="U" unicode="U" horiz-adv-x="1536" 
d="M49 1462h481q-11 -184 -16 -418q4 -152 7 -238.5t9 -174.5q15 -194 95.5 -253t171.5 -59q50 0 100 25t86 85t43 151q0 28 2 130t2 193q0 50 -2.5 221.5t-5.5 370.5h473v-543q0 -130 -7 -235.5t-31 -207.5t-75.5 -198t-132.5 -170q-52 -46 -121 -81t-152 -56t-179 -27h-43
q-103 0 -212 24t-212.5 89.5t-175 186t-88.5 303.5q-5 71 -10 134.5t-9.5 167.5t-5.5 167q8 216 8 413zM246 1303q-8 -161 -8 -330q0 -124 6.5 -229t21.5 -192.5t37 -150.5q51 -151 171 -228t314 -77q149 6 254.5 54t166 139t75.5 225q23 224 23 438q0 151 -9 365l-67 2
q2 -72 3.5 -145t2 -95.5t0.5 -101.5q0 -256 -23 -436q-18 -142 -78.5 -223t-144 -112t-188.5 -34q-134 0 -257.5 61t-160.5 166q-28 83 -44 169t-22 172t-6 192q0 107 4 371h-71z" />
    <glyph glyph-name="V" unicode="V" horiz-adv-x="1769" 
d="M41 1276l440 237q58 -125 91.5 -196t95 -198.5t114.5 -239t103 -220.5q178 379 245.5 520t163.5 339l435 -226q-86 -140 -206 -331.5t-213 -340t-217 -344.5t-225 -356h-24q-101 161 -188 305t-197 332.5t-194 333.5t-224 385zM342 1186l526 -963l590 998l-59 30
l-529 -893l-469 856z" />
    <glyph glyph-name="W" unicode="W" horiz-adv-x="2296" 
d="M1135 1300h22l414 -608h4l262 772l418 -168q-7 -15 -96 -207t-187.5 -405.5t-194 -411.5t-163.5 -327h-23l-456 633q-60 -90 -126 -184.5t-121.5 -172t-121.5 -173t-104 -152.5h-21q-62 154 -156.5 372.5t-171.5 396.5t-147.5 349t-124.5 311l438 160q34 -103 61 -189.5
t64.5 -207.5t81 -258.5t55.5 -174.5q57 96 118 197t87.5 144t80.5 130.5t108 173.5zM283 1214l393 -1011l461 678l462 -600l398 915l-62 25l-352 -811l-448 585l-445 -651l-344 893z" />
    <glyph glyph-name="X" unicode="X" horiz-adv-x="1620" 
d="M827 1040q71 84 150 178t101.5 121.5t158.5 196.5l332 -305q-88 -92 -142 -146t-90 -89.5t-112 -111.5t-121 -122l475 -520l-352 -324q-74 88 -95.5 114.5t-99.5 123t-141 175t-100 122.5q-254 -311 -431 -539l-319 311l477 512q-48 51 -99 107.5t-154.5 174
t-174.5 195.5l350 322q60 -74 106.5 -133.5t96 -123.5t95.5 -123t89 -116zM1257 1276l-432 -473l-409 465l-49 -45l413 -467l-483 -529l47 -45l479 523l439 -498l49 45l-443 502l439 479z" />
    <glyph glyph-name="Y" unicode="Y" horiz-adv-x="1593" 
d="M791 938h16q47 141 147 257.5t223.5 193.5t245.5 108l129 -426q-385 -96 -499 -438q-12 -34 -21 -61t-14.5 -55t-5.5 -54q0 -109 -4 -174q2 -51 4 -103t4 -99t4 -87h-485q2 55 7 160t5 153q0 204 -33 312q-59 184 -177.5 290t-295.5 156l162 426q168 -53 280.5 -133
t172 -159.5t92 -159t43.5 -107.5zM1350 1202l-23 66q-163 -106 -303.5 -261.5t-235.5 -344.5h-6q-161 397 -458 593l-27 -63q152 -102 267.5 -269t185.5 -384l2 -367h63l2 363q22 82 73 172.5t123.5 180.5t156 168.5t180.5 145.5z" />
    <glyph glyph-name="Z" unicode="Z" horiz-adv-x="1425" 
d="M49 -20l-8 20q93 145 174 275.5t172 279.5t156 256t178 291q-98 2 -159.5 4t-125 4t-139.5 4t-176 4q8 242 8 363q125 -6 266.5 -13t335 -15.5t334 -14t311.5 -11.5l8 -20q-95 -161 -163 -274t-161.5 -264.5t-167.5 -270.5t-175 -281q107 2 174 3t159.5 2t160 3.5
t147.5 8.5l-8 -375q-214 2 -318 3.5t-345.5 6t-367.5 6.5t-270 5zM274 1253l727 -32l-690 -1123h908l4 70l-787 2l684 1112l-844 43z" />
    <glyph glyph-name="a" unicode="a" horiz-adv-x="1817" 
d="M866 1186l-600 -1006l60 -33l104 179l913 51l123 -195l60 33l-621 971h-39zM41 145q119 199 222.5 373t210 353.5t168 282t226.5 370.5h23q87 -131 192 -292.5t227 -350.5t237.5 -366t228.5 -345l-406 -238q-30 48 -55 90.5t-61.5 107t-65.5 116.5l-623 -37
q-37 -75 -73.5 -154t-59.5 -127zM696 514l351 21q-42 79 -77 148t-59 117.5t-39 80.5q-24 -50 -39.5 -81.5t-35.5 -73t-46 -96.5t-55 -116zM473 395l412 695l420 -650z" />
    <glyph glyph-name="b" unicode="b" horiz-adv-x="1266" 
d="M1225 440q-6 -88 -53.5 -152.5t-105 -102t-159.5 -89.5q-51 -25 -122.5 -46t-158 -36.5t-165.5 -22.5t-131 -7q-41 0 -143 -2t-146 -2q10 271 10 653q0 203 -2 373t-8 442q98 -1 204 -1.5t237 -7t239.5 -22.5t181.5 -45q136 -51 196 -121t60 -194q-4 -68 -55 -129.5
t-111 -101t-90 -46.5v-12q58 -8 132.5 -44.5t132 -108t57.5 -175.5zM477 633q161 -3 224 -63t63 -130q0 -37 -30.5 -84t-96 -83t-160.5 -42v402zM477 1217q236 0 236 -160q0 -76 -42.5 -127.5t-98.5 -77t-95 -25.5v390zM223 1362l4 -1286l242 -2q146 0 270 48.5t197.5 131
t77.5 180.5q0 103 -77 177t-206 112v10q240 142 240 338q-4 98 -78.5 165t-206 99.5t-303.5 32.5q-76 0 -160 -6zM289 1298v-530l217 -2q77 0 115 4t75 20t80 52q66 56 97.5 105.5t31.5 113.5q-3 132 -143 187t-354 55q-21 0 -119 -5zM293 700l-2 -557q76 -6 149 -6
q119 0 216.5 23.5t162.5 77.5q73 61 103 99t30 101q0 91 -83.5 151t-213 86.5t-274.5 26.5q-59 0 -88 -2z" />
    <glyph glyph-name="c" unicode="c" horiz-adv-x="1255" 
d="M1067 1481l92 -402q-191 -29 -330 -98t-211.5 -161.5t-72.5 -188.5q0 -81 51 -150t159.5 -111.5t266.5 -43.5q128 9 174 12l18 -375q-115 -16 -260 -16q-254 0 -454 72t-317 199t-138 286q-4 40 -4 65q0 135 64.5 273t192 262t324.5 223.5t445 153.5zM946 1221l-14 65
q-136 -42 -252 -100.5t-212 -141t-153 -192.5t-57 -248q4 -128 53.5 -223t142 -157.5t225 -94t304.5 -31.5h59l-4 66q-24 0 -38 -0.5t-31 -1.5q-157 0 -280.5 31t-209.5 92q-155 108 -155 321q1 173 93 295t225.5 194.5t303.5 125.5z" />
    <glyph glyph-name="d" unicode="d" horiz-adv-x="1522" 
d="M41 -90q2 136 3.5 239.5t3 208.5t2.5 176t1 214q0 107 -4 319t-4 319q666 0 946 -65q130 -32 242.5 -98.5t181 -170t68.5 -237.5q0 -135 -52.5 -257.5t-145.5 -223t-209 -173.5t-247 -120q-82 -31 -169.5 -53.5t-193.5 -39.5t-203 -26t-220 -12zM508 1055
q176 0 282 -39.5t152.5 -112t46.5 -176.5q0 -114 -72.5 -209.5t-185 -155.5t-223.5 -77v770zM250 1241l-6 -1194q215 9 403 67.5t331.5 158.5t225.5 235.5t88 292.5q0 177 -164 291q-125 88 -299 120.5t-401 32.5q-64 0 -178 -4zM315 1176l-4 -1057q193 10 362 71t292.5 157
t190.5 210.5t67 226.5q0 77 -33 148q-31 65 -107 112.5t-177.5 76.5t-222 43t-257.5 14q-74 0 -111 -2z" />
    <glyph glyph-name="e" unicode="e" horiz-adv-x="1016" 
d="M821 94v68l-510 4l-2 508h418v65l-418 2l-2 523l488 16l-2 68l-551 -19l4 -1229zM41 1448q165 6 889 37l8 -340q-50 -2 -140 -4t-158 -3.5t-142 -2.5v-277q79 4 129 6t110 5.5t131 9.5l4 -332q-100 0 -374 8v-246q151 0 231 -4q40 2 117 4t117 4l12 -354l-934 21
q6 367 6 765q0 343 -6 703z" />
    <glyph glyph-name="f" unicode="f" horiz-adv-x="997" 
d="M41 1448q50 1 201 5t377.5 11.5t328.5 12.5l8 -338q-33 -1 -99.5 -3t-113.5 -3.5t-112 -3t-133 -3.5v-321q73 4 209.5 10t205.5 10l9 -325q-285 0 -424 4l4 -524h-461v1468zM242 119h65l-2 504h473l-2 67l-471 -2l-2 578l504 12l-2 65l-567 -12q1 -96 1.5 -248t1 -307
t1 -333.5t0.5 -323.5z" />
    <glyph glyph-name="g" unicode="g" horiz-adv-x="1395" 
d="M1108 1487l96 -404q-236 -35 -424 -145q-102 -59 -181 -158t-79 -198q0 -102 92 -181q69 -59 136.5 -76.5t156.5 -21.5q0 207 -4 340h449l4 -649q-221 -45 -416 -45q-155 0 -284 16.5t-248 66.5t-209 142q-156 164 -156 379q0 142 67.5 282t178.5 248q66 66 144.5 123
t177 108t224 94.5t275.5 78.5zM965 1200l-17 62q-111 -37 -211 -87.5t-187.5 -113.5t-160.5 -137q-147 -148 -147 -308q0 -82 40 -167t119 -168q202 -199 461 -199q71 0 147 11.5t152 35.5v338h-65v-291q-91 -21 -203 -29q-268 0 -459 191q-127 151 -127 278q0 131 129 261
q105 106 235 185.5t294 137.5z" />
    <glyph glyph-name="h" unicode="h" horiz-adv-x="1571" 
d="M41 1446q6 -253 8 -421t2 -372q0 -114 -0.5 -199t-1.5 -156t-1.5 -140.5t-0.5 -180.5h481q-4 191 -6 307.5t-2 252.5l539 41q0 -207 -4 -304q0 -180 -4 -297h479q-1 121 -2.5 261t-2.5 273t-3 265q2 110 3 192t1.5 152.5l1 141t2.5 184.5h-479q2 -43 4 -129t2 -140.5
t0.5 -119.5t1.5 -129l-539 -41q0 186 1.5 310.5t6.5 248.5h-487zM246 1260h65l2 -539l951 86l-2 467l65 -2l4 -1110h-67v577l-953 -84l4 -489h-65z" />
    <glyph glyph-name="i" unicode="i" horiz-adv-x="563" 
d="M41 1446q2 -134 3 -369t1 -438q0 -165 -1 -356.5t-3 -302.5h481q-8 520 -12 782q1 87 3 172t3.5 170.5l3 171t2.5 170.5h-481zM244 1243l65 -2l4 -1065l-65 2z" />
    <glyph glyph-name="j" unicode="j" horiz-adv-x="844" 
d="M317 1466h486q-4 -89 -6 -157t-3.5 -144.5t-3.5 -166.5t-4 -140q5 -96 5 -254q0 -215 -72 -383q-78 -166 -184 -265.5t-277 -193.5l-217 357q54 28 101 64.5t83 80.5t60.5 98t31.5 113q13 62 13 199q0 133 -0.5 259t-3.5 265t-9 268zM281 57l36 -55q113 97 201 243.5
t88 291.5l-2 729h-63l2 -750q0 -71 -42.5 -163.5t-105 -173.5t-114.5 -122z" />
    <glyph glyph-name="k" unicode="k" horiz-adv-x="1468" 
d="M518 655h-8q0 -69 -4 -106q2 -77 4 -137t5 -132.5t5 -169.5t2 -151h-481q0 79 2 241t3.5 244.5t3 206t1.5 291.5q0 113 -1 186t-3 160.5t-6 175.5h481q-3 -168 -7.5 -345.5t-4.5 -330.5h8q161 208 549 689l342 -301l-434 -449q58 -63 116 -124.5t108.5 -114.5t118 -125.5
t109.5 -118.5l-364 -316q-67 90 -137 180t-138.5 180.5t-141 189t-128.5 177.5zM246 1266l-4 -1131l65 2l4 1129h-65zM1081 1194l-407 -489l428 -492l51 43l-391 451l371 442z" />
    <glyph glyph-name="l" unicode="l" horiz-adv-x="1018" 
d="M41 1450h483q-4 -138 -6 -314.5t-3 -300.5t-1 -239.5t-2 -255.5q58 0 98 0.5t119.5 2t148 3t99.5 2.5v-383q-96 1 -350 8.5t-353 10t-233 2.5q1 58 2.5 134.5t2 143.5t1 172t0.5 254q0 319 -6 760zM813 190l-500 3l-2 1062h-65l2 -1132l565 -2v69z" />
    <glyph glyph-name="m" unicode="m" horiz-adv-x="2284" 
d="M264 154l363 991l491 -742l471 711l410 -913l-62 -27l-358 799l-461 -690l-473 716l-319 -868zM612 1489q-50 -120 -117 -283t-148 -364t-161.5 -403t-144.5 -371q68 -25 142.5 -53.5t134.5 -50t128 -48.5q36 112 60 189.5t55.5 184t67.5 228.5t39 133
q88 -145 120.5 -199t72.5 -117.5t99.5 -156t114.5 -178.5h23q54 76 106.5 152.5t123 183.5t113 171.5t101.5 151.5q27 -72 61 -163t73.5 -196t78 -204.5t70.5 -179.5l418 184l-138 303l-475 1053h-22l-482 -780l-493 813h-21z" />
    <glyph glyph-name="n" unicode="n" horiz-adv-x="1628" 
d="M123 1475l20 12q44 -32 244 -180.5t318 -237t243.5 -182t225.5 -168.5q0 129 -9 530q4 78 4 221l418 -8q-8 -124 -21.5 -342t-22 -385.5t-18 -349t-22.5 -420.5l-20 -8q-89 63 -171.5 122.5t-242.5 180t-269 205.5t-343 264q0 -111 0.5 -187t1.5 -157t1.5 -179t0.5 -224
l-420 16q10 187 19.5 366t20 367.5t19 339.5t23.5 404zM285 147l41 889l1056 -784l35 1061l-65 2l-31 -936l-1057 786l-45 -1018h66z" />
    <glyph glyph-name="o" unicode="o" horiz-adv-x="1782" 
d="M895 1176q-97 -6 -174 -61.5t-121.5 -153t-50.5 -220.5q0 -147 41.5 -250.5t114 -154.5t161.5 -53q13 4 29 4q183 16 258.5 147t79.5 307q0 215 -85.5 325t-232.5 110h-20zM895 1495q229 0 358 -41q120 -36 213.5 -103t154 -157.5t90.5 -203.5t30 -249
q-5 -143 -60.5 -279.5t-162 -244t-264.5 -173.5t-359 -75q-260 0 -453 94.5t-296 254.5t-105 348q4 28 4 75q20 182 100.5 326.5t200 238.5t261.5 141.5t288 47.5zM956 1380q-133 0 -259 -53.5t-223 -145.5t-156.5 -209t-65.5 -237q0 -154 97 -307t248 -250.5t296 -97.5
q149 0 298 96.5t248 247.5t103 299q0 122 -44.5 238.5t-123 209.5t-187.5 150.5t-231 58.5zM952 1309q106 0 201.5 -49t168.5 -132t113 -183.5t40 -205.5q-6 -132 -92 -270t-218 -228t-262 -91q-132 0 -270.5 85.5t-229 219t-90.5 270.5q4 116 56.5 220.5t144 187.5
t206 129.5t232.5 46.5z" />
    <glyph glyph-name="p" unicode="p" horiz-adv-x="1288" 
d="M498 369l4 -363h-461q8 320 8 486q0 165 -1 268t-3 246t-3 244.5t-1 219.5q104 -1 298.5 -3.5t340.5 -19.5t270 -59t197 -118q41 -40 69 -102t31 -136q0 -189 -122 -335.5t-296.5 -228.5t-330.5 -99zM498 1180l4 -518q33 0 101.5 34.5t122.5 98.5t54 149q0 77 -38.5 128
t-103.5 76.5t-140 31.5zM231 195l68 -2v243q175 22 313.5 73t236 122.5t148.5 151.5t56 159q0 63 -20 126.5t-60 107.5q-159 172 -742 182v-1163zM299 1288q186 -2 359 -34.5t262 -129.5q61 -67 61 -159q0 -55 -23 -110t-67 -99q-50 -52 -119 -94t-151.5 -75.5t-163 -54.5
t-162.5 -30z" />
    <glyph glyph-name="q" unicode="q" horiz-adv-x="1845" 
d="M911 1174q-112 0 -195.5 -66t-127 -172.5t-43.5 -226.5q0 -213 67 -308q45 -64 103.5 -95t136.5 -34q22 4 59 4q83 9 153.5 61t114.5 146.5t50 225.5v45q0 200 -80.5 308.5t-237.5 111.5zM911 1493q229 0 415 -76.5t296.5 -239t110.5 -409.5q0 -121 -44 -250t-129 -231.5
t-196 -143.5v-16l440 -10l-43 -348q-52 11 -268 62t-306 71.5t-196.5 39t-187.5 21.5q-136 9 -264.5 48t-241.5 122t-184.5 227t-71.5 349q0 109 37 222t110 215.5t170 174.5q115 78 252 123.5t301 48.5zM922 1386q-115 0 -230.5 -62t-213 -164.5t-156 -223t-62.5 -231.5
q0 -144 75.5 -280.5t201 -228t266.5 -104.5v-10l860 -158l6 68l-620 108v6q110 40 200 115.5t153.5 170.5t96.5 191t33 171q-1 117 -49 232t-128.5 203.5t-194 142.5t-238.5 54zM946 1313q135 0 253 -85t188.5 -214t70.5 -246q-3 -101 -48 -208t-122 -197t-174.5 -147
t-206.5 -64q-135 0 -268.5 75.5t-218 200t-84.5 256.5q3 106 53.5 218.5t135.5 204.5t195.5 148.5t225.5 57.5z" />
    <glyph glyph-name="r" unicode="r" horiz-adv-x="1477" 
d="M1436 217l-377 -283l-506 748q72 36 124 87.5t81.5 111t29.5 110.5q0 85 -70 137t-220 52l12 -1178h-461v522q0 156 -0.5 273.5t-1.5 216.5t-2.5 197.5t-3.5 254.5h104q228 0 391 -7.5t318 -34t266 -86t135 -158.5q13 -51 13 -107q0 -105 -62 -200.5t-205 -198.5
q63 -71 105 -114t107 -107t117 -119t106 -117zM311 184l-2 1116q283 -2 475 -52t211 -165q4 -28 4 -41q0 -82 -62 -168t-192 -188l365 -496l53 43l-325 443q235 193 235 371q0 93 -69 165q-69 76 -245.5 117t-408.5 41q-71 0 -106 -2v-1184h67z" />
    <glyph glyph-name="s" unicode="s" horiz-adv-x="1065" 
d="M162 1223q60 58 151.5 113.5t233.5 100.5t323 62l58 -346q-144 -8 -209 -14.5t-121.5 -33.5t-56.5 -81q0 -21 20 -39.5t60.5 -41t89.5 -47t84 -46.5q229 -126 229 -305q0 -11 -2 -31t-2 -31q-15 -96 -83 -183t-184 -159t-263 -117.5t-328 -62.5l-58 350q15 0 24 -0.5
t19 -1.5q86 0 172 17t145 51t60 80q0 26 -34.5 54.5t-114 75t-115.5 70.5q-212 130 -219 308q3 76 37 140t84 118zM772 1282v2l-10 66q-76 -17 -160.5 -44.5t-159.5 -69t-126 -105.5t-52 -148q0 -76 65.5 -133.5t191.5 -124t188.5 -111.5t62.5 -100q-4 -56 -42 -105
t-102.5 -88.5t-153 -73.5t-193.5 -61l10 -65l-12 67l14 -71q177 46 291 99.5t179 125t77 164.5q0 79 -66.5 138t-196 130t-186.5 112t-57 95q0 66 53.5 125.5t153 105.5t231.5 70z" />
    <glyph glyph-name="t" unicode="t" horiz-adv-x="1452" 
d="M41 1096v358q246 -8 750 -16q409 8 620 16v-358q-102 3 -161.5 4.5t-122.5 3t-171 4.5q9 -774 9 -1110h-476v543q5 178 5 567q-336 -7 -453 -12zM166 1315v-68h528v-1069l68 2l-2 1067l528 -2l2 70h-1124z" />
    <glyph glyph-name="u" unicode="u" horiz-adv-x="1536" 
d="M49 1462h481q-11 -184 -16 -418q4 -152 7 -238.5t9 -174.5q15 -194 95.5 -253t171.5 -59q50 0 100 25t86 85t43 151q0 28 2 130t2 193q0 50 -2.5 221.5t-5.5 370.5h473v-543q0 -130 -7 -235.5t-31 -207.5t-75.5 -198t-132.5 -170q-52 -46 -121 -81t-152 -56t-179 -27h-43
q-103 0 -212 24t-212.5 89.5t-175 186t-88.5 303.5q-5 71 -10 134.5t-9.5 167.5t-5.5 167q8 216 8 413zM246 1303q-8 -161 -8 -330q0 -124 6.5 -229t21.5 -192.5t37 -150.5q51 -151 171 -228t314 -77q149 6 254.5 54t166 139t75.5 225q23 224 23 438q0 151 -9 365l-67 2
q2 -72 3.5 -145t2 -95.5t0.5 -101.5q0 -256 -23 -436q-18 -142 -78.5 -223t-144 -112t-188.5 -34q-134 0 -257.5 61t-160.5 166q-28 83 -44 169t-22 172t-6 192q0 107 4 371h-71z" />
    <glyph glyph-name="v" unicode="v" horiz-adv-x="1769" 
d="M41 1276l440 237q58 -125 91.5 -196t95 -198.5t114.5 -239t103 -220.5q178 379 245.5 520t163.5 339l435 -226q-86 -140 -206 -331.5t-213 -340t-217 -344.5t-225 -356h-24q-101 161 -188 305t-197 332.5t-194 333.5t-224 385zM342 1186l526 -963l590 998l-59 30
l-529 -893l-469 856z" />
    <glyph glyph-name="w" unicode="w" horiz-adv-x="2296" 
d="M1135 1300h22l414 -608h4l262 772l418 -168q-7 -15 -96 -207t-187.5 -405.5t-194 -411.5t-163.5 -327h-23l-456 633q-60 -90 -126 -184.5t-121.5 -172t-121.5 -173t-104 -152.5h-21q-62 154 -156.5 372.5t-171.5 396.5t-147.5 349t-124.5 311l438 160q34 -103 61 -189.5
t64.5 -207.5t81 -258.5t55.5 -174.5q57 96 118 197t87.5 144t80.5 130.5t108 173.5zM283 1214l393 -1011l461 678l462 -600l398 915l-62 25l-352 -811l-448 585l-445 -651l-344 893z" />
    <glyph glyph-name="x" unicode="x" horiz-adv-x="1620" 
d="M827 1040q71 84 150 178t101.5 121.5t158.5 196.5l332 -305q-88 -92 -142 -146t-90 -89.5t-112 -111.5t-121 -122l475 -520l-352 -324q-74 88 -95.5 114.5t-99.5 123t-141 175t-100 122.5q-254 -311 -431 -539l-319 311l477 512q-48 51 -99 107.5t-154.5 174
t-174.5 195.5l350 322q60 -74 106.5 -133.5t96 -123.5t95.5 -123t89 -116zM1257 1276l-432 -473l-409 465l-49 -45l413 -467l-483 -529l47 -45l479 523l439 -498l49 45l-443 502l439 479z" />
    <glyph glyph-name="y" unicode="y" horiz-adv-x="1593" 
d="M791 938h16q47 141 147 257.5t223.5 193.5t245.5 108l129 -426q-385 -96 -499 -438q-12 -34 -21 -61t-14.5 -55t-5.5 -54q0 -109 -4 -174q2 -51 4 -103t4 -99t4 -87h-485q2 55 7 160t5 153q0 204 -33 312q-59 184 -177.5 290t-295.5 156l162 426q168 -53 280.5 -133
t172 -159.5t92 -159t43.5 -107.5zM1350 1202l-23 66q-163 -106 -303.5 -261.5t-235.5 -344.5h-6q-161 397 -458 593l-27 -63q152 -102 267.5 -269t185.5 -384l2 -367h63l2 363q22 82 73 172.5t123.5 180.5t156 168.5t180.5 145.5z" />
    <glyph glyph-name="z" unicode="z" horiz-adv-x="1425" 
d="M49 -20l-8 20q93 145 174 275.5t172 279.5t156 256t178 291q-98 2 -159.5 4t-125 4t-139.5 4t-176 4q8 242 8 363q125 -6 266.5 -13t335 -15.5t334 -14t311.5 -11.5l8 -20q-95 -161 -163 -274t-161.5 -264.5t-167.5 -270.5t-175 -281q107 2 174 3t159.5 2t160 3.5
t147.5 8.5l-8 -375q-214 2 -318 3.5t-345.5 6t-367.5 6.5t-270 5zM274 1253l727 -32l-690 -1123h908l4 70l-787 2l684 1112l-844 43z" />
    <glyph glyph-name="quoteright" unicode="&#x2019;" horiz-adv-x="449" 
d="M41 1049l119 456l248 -112l-224 -410zM291 1360l-64 26l-129 -305l62 -24z" />
    <glyph glyph-name="quotedblleft" unicode="&#x201c;" 
d="M387 1386l248 97l102 -463l-147 -59zM41 1350l201 133l204 -414l-127 -86zM504 1343l108 -311l64 23l-109 311zM162 1333l176 -286l55 36l-174 285z" />
    <glyph glyph-name="quotedblright" unicode="&#x201d;" 
d="M41 1020l104 463l246 -97l-201 -425zM332 1067l205 416l200 -133l-276 -367zM104 1055l62 -23l110 311l-65 23zM385 1081l55 -34l176 286l-55 35z" />
    <glyph glyph-name="bullet" unicode="&#x2022;" horiz-adv-x="627" 
d="M41 825q81 42 168.5 96t148.5 97q44 -69 83.5 -130.5t72.5 -108t72 -91.5q-91 -56 -161.5 -103.5t-211.5 -146.5q-74 175 -103 243.5t-69 143.5zM303 795l-67 -45l26 -60l78 49z" />
    <glyph glyph-name="emdash" unicode="&#x2013;" horiz-adv-x="786" 
d="M51 575l-10 320q168 -4 596 -4h102l6 -291q-48 0 -129 -2t-208.5 -6.5t-221 -8.5t-135.5 -8zM162 772h2v-59h475v59h-477z" />
    <glyph glyph-name="endash" unicode="&#x2014;" horiz-adv-x="2142" 
d="M41 588v295q340 -6 684 -6q172 1 371.5 2t372 2t287.5 1.5t345 0.5v-295q-240 12 -667 12q-241 0 -538 -3.5t-475 -6t-380 -2.5zM1991 764v6h-1852v-70h1856z" />
    <glyph glyph-name="copyright" unicode="&#xa9;" horiz-adv-x="1378" 
d="M702 1370q92 0 177 -36t146.5 -97.5t97.5 -146.5t36 -177q0 -122 -61.5 -227.5t-167.5 -167t-228 -61.5q-91 0 -173.5 35t-147.5 100t-100 147.5t-35 173.5q0 122 61.5 228t167 167.5t227.5 61.5zM840 1167q-35 0 -64 -17t-46 -46t-17 -64q0 -52 37.5 -89.5t89.5 -37.5
q51 0 89 37t38 90q0 54 -37.5 90.5t-89.5 36.5zM1221 1473l116 -144l-188 -151l-117 143zM627 -2q-190 0 -344 103t-228 274l-14 39h1169l-14 -39q-73 -170 -226 -273.5t-343 -103.5zM109 766l43 51v-242h-33v187h-10v4zM453 573q4 8 14.5 22t13.5 19q37 71 37 127
q0 27 -10 51.5t-31 24.5q-18 0 -30.5 -22t-12.5 -52q0 -45 37 -75q-16 -40 -39 -68zM481 702q4 13 4 39q0 27 -10 39q-1 -1 -1.5 -2.5t-2.5 -3.5q-4 -10 -4 -29q0 -27 14 -43zM811 573q23 29 29 41q39 72 39 127q0 27 -11 51.5t-32 24.5q-19 0 -30 -21t-11 -53q0 -48 34 -75
q-15 -42 -36 -68zM840 702q6 19 6 39q0 24 -10 39q-1 -2 -2 -3l-3 -3q-4 -10 -4 -29q0 -20 13 -43zM1231 641q0 -27 -11 -47.5t-28 -20.5t-29 21t-12 47q0 30 20 57q-7 7 -12.5 19t-5.5 35q0 26 11.5 45.5t27.5 19.5q17 0 28 -19t11 -46t-19 -54q19 -22 19 -57zM1192 782
q-8 -13 -8 -32q0 -23 8 -33q6 8 6 31q0 26 -6 34zM1192 678q-4 -4 -4 -6q-4 -10 -4 -27q0 -25 8 -33q8 8 8 33q0 17 -8 33z" />
  </font>
</defs>
</svg>
