<?xml version="1.0" encoding="utf-8"?>
<!-- Generator: Adobe Illustrator 19.1.1, SVG Export Plug-In . SVG Version: 6.00 Build 0)  -->
<svg version="1.1" id="Layer_1" xmlns="http://www.w3.org/2000/svg" xmlns:xlink="http://www.w3.org/1999/xlink" x="0px" y="0px"
	 viewBox="0 0 313 90.1" style="enable-background:new 0 0 313 90.1;" xml:space="preserve">
<style type="text/css">
	.st0{fill:#FFFFFF;}
</style>
<g>
	<path class="st0" d="M8.6,81.8v-52h-8v-8.3h17.2v7.4c4.6-5.4,10.2-8.2,16.8-8.2c6.6,0,12.1,2.3,16.5,6.8c4.3,4.6,6.5,10.5,6.5,17.8
		c0,7.6-2.4,13.7-7.1,18.1c-4.7,4.4-10.1,6.6-16.1,6.6c-6.3,0-11.8-2.4-16.6-7.2v18.8h9.2v8.3H0v-8.3H8.6z M17.8,45.9
		c0,2.6,0.5,5.1,1.6,7.5c1.1,2.4,2.8,4.4,5.1,6s5.1,2.4,8.3,2.4c4.4,0,8.1-1.5,11-4.4c2.9-3,4.3-7,4.3-12.2c0-5-1.5-9-4.5-11.8
		c-3-2.8-6.4-4.2-10.3-4.2c-4.1,0-7.7,1.5-10.8,4.6C19.3,36.8,17.8,40.9,17.8,45.9z"/>
	<path class="st0" d="M69.4,60.6V29.9h-7.3v-8.3h16.6v39H86v8.3H62.1v-8.3H69.4z M68.1,5.6c0-1.5,0.5-2.8,1.6-3.9
		c1.1-1.1,2.4-1.7,4-1.7c1.5,0,2.8,0.5,4,1.6c1.1,1.1,1.7,2.4,1.7,4s-0.6,2.9-1.7,4c-1.1,1.1-2.4,1.6-4,1.6c-1.6,0-2.9-0.6-4-1.7
		C68.6,8.4,68.1,7.1,68.1,5.6z"/>
	<path class="st0" d="M133.4,21.6v17.9h-8.3c-0.4-3.4-1.8-6-4.2-7.9c-2.4-1.8-5.1-2.7-8.2-2.7c-4.2,0-7.6,1.5-10.2,4.4
		c-2.6,2.9-3.9,6.8-3.9,11.6c0,4.5,1.2,8.4,3.7,11.8c2.5,3.4,6.1,5.1,10.7,5.1c6.5,0,11.2-3.1,14.2-9.3l7.7,3.6
		c-4.2,9.4-11.6,14.1-22.2,14.1c-7.5,0-13.4-2.6-17.7-7.7c-4.3-5.1-6.4-11-6.4-17.7c0-7.1,2.3-13,7-17.7s10.1-7,16.2-7
		c5.2,0,9.7,1.5,13.3,4.6v-3.3H133.4z"/>
	<path class="st0" d="M140,32.5V21.6h6v-7.4l15.1-10.8v18.3h8.7v10.9h-8.7V53c0,1.9,0.2,3.1,0.7,3.7c0.5,0.6,1.6,1,3.2,1
		c1.4,0,3-0.3,4.7-1v10.4c-3.9,1.6-7.7,2.4-11.4,2.4c-8.3,0-12.4-4.1-12.4-12.3V32.5H140z"/>
	<path class="st0" d="M232.6,58v10.9h-22.7v-4c-4.5,3.1-9.1,4.7-13.8,4.7c-4.6,0-8.1-1.3-10.7-3.8c-2.6-2.6-3.9-6.2-3.9-10.8V32.5
		h-7.1V21.6h22.1v29.4c0,2.3,0.4,3.9,1.1,4.8c0.7,0.9,2,1.3,3.9,1.3c2.5,0,5.3-1.1,8.3-3.4V32.5h-7.3V21.6H225V58H232.6z"/>
	<path class="st0" d="M230.9,32.5V21.6h6v-7.4L252,3.4v18.3h8.7v10.9H252V53c0,1.9,0.2,3.1,0.7,3.7c0.5,0.6,1.6,1,3.2,1
		c1.4,0,3-0.3,4.7-1v10.4c-3.9,1.6-7.7,2.4-11.4,2.4c-8.3,0-12.4-4.1-12.4-12.3V32.5H230.9z"/>
	<path class="st0" d="M288.1,70c-7,0-12.9-2.2-17.7-6.6c-4.8-4.4-7.2-10.5-7.2-18.1c0-7.7,2.4-13.7,7.2-18.1
		c4.8-4.4,10.7-6.6,17.7-6.6c7,0,12.9,2.2,17.7,6.6c4.8,4.4,7.2,10.5,7.2,18.1c0,7.6-2.4,13.6-7.1,18.1
		C301.1,67.7,295.2,70,288.1,70z M288.1,58.3c2.8,0,5.1-1.1,6.8-3.2c1.7-2.1,2.6-5.5,2.6-10.1c0-4-0.8-7.2-2.5-9.4
		c-1.7-2.3-4-3.4-6.9-3.4c-6.2,0-9.3,4.5-9.3,13.5c0,3.7,0.8,6.7,2.3,9.1C282.6,57.1,285,58.3,288.1,58.3z"/>
</g>
</svg>
