<?xml version="1.0" encoding="utf-8"?>
<!-- Generator: Adobe Illustrator 19.1.1, SVG Export Plug-In . SVG Version: 6.00 Build 0)  -->
<svg version="1.1" id="Layer_1" xmlns="http://www.w3.org/2000/svg" xmlns:xlink="http://www.w3.org/1999/xlink" x="0px" y="0px"
	 viewBox="181 -116 973.1 1024" style="enable-background:new 181 -116 973.1 1024;" xml:space="preserve">
<style type="text/css">
	.st0{fill:#FFFFFF;}
</style>
<path class="st0" d="M1141,716L891.9,466.9C927.4,408.8,949,341.2,949,268c0-212-172-384-384-384c-212,0-384,172-384,384
	c0,212,172,384,384,384c73.2,0,140.8-21.6,198.9-57L1013,844c17.5,17.5,46.5,17.4,64,0l64-64C1158.5,762.5,1158.5,733.5,1141,716z
	 M565,524c-141.4,0-256-114.6-256-256S423.6,12,565,12s256,114.6,256,256S706.4,524,565,524z"/>
</svg>
