<?xml version="1.0" encoding="utf-8"?>
<!-- Generator: Adobe Illustrator 21.0.0, SVG Export Plug-In . SVG Version: 6.00 Build 0)  -->
<svg version="1.1" id="Layer_1" xmlns="http://www.w3.org/2000/svg" xmlns:xlink="http://www.w3.org/1999/xlink" x="0px" y="0px"
	 viewBox="0 0 92.3 92.3" style="enable-background:new 0 0 92.3 92.3;" xml:space="preserve">
<style type="text/css">
	.st0{fill:#D36259;}
</style>
<path class="st0" d="M46.2,0C20.7,0,0,20.7,0,46.2s20.7,46.2,46.2,46.2s46.2-20.7,46.2-46.2S71.7,0,46.2,0z M52.9,51.2
	c-0.4,2.2-1.6,4.3-2.6,6.2c-1,1.9-2.3,3.6-4.3,4.7c-1.6,0.9-3.1,1.8-4.9,2.3c-1.8,0.5-3.7,0.4-5.6,0.5c-2,0.1-3.9-0.2-5.8-0.8
	c-3.3-1.2-7.4-3.3-9.6-6.2c-2-2.6-4-6.8-4-10.1v-1.4c1-3.2,1.4-7,3-10c1-1.7,1.8-3.4,3.5-4.6c0.8-0.6,1.8-1.2,2.6-1.7
	c0.8-0.5,1.3-0.8,2.2-1.2c6.4-2.6,14.6-2.2,19.9,2.7c0.2,0.1,0.3,0.4,0.5,0.6l-1.1,1c-1.1,1.4-2.8,2.9-3.7,4.2l-0.9-0.8
	c-1-1.3-3.7-1.9-4.6-2.1c-2.3-0.5-5.1,0-7.3,1.1c-3.8,1.9-6.5,6.1-6.7,10.2c-0.1,3.1,1.4,6.7,3.5,9.1c1.4,1.6,4.6,3.2,6.7,3.3
	c1.5,0.1,3-0.1,4.5-0.3c3.6-0.5,7.3-4.3,7.9-7.8l-1.7,0c-1.2-0.1-3.2,0-4.7,0c-1.2,0-3.6,0.1-4.3-0.1c0,0,0.1-4.9,0-6.4
	c0,0,5,0.1,7.3,0.2c1.6,0.1,3.3,0.3,4.9,0.2c1.8-0.1,3.7,0.1,5.5-0.3C53.2,46.1,53.3,48.7,52.9,51.2z M70.4,48.6
	c-0.1,1.6-0.1,4.1-0.1,5.6c-1.4-0.3-3,0.1-4.3-0.1l-0.9,0.1c0-1.8,0-3.7-0.1-5.5c-1.4-0.1-5.3,0.1-5.3,0.1c-0.1-1.5,0-3.6-0.1-5.1
	c1.5,0.2,3.9,0,5.4,0l0.1-0.5c0-1.4,0.1-3.3,0.1-4.9c1.6,0,3.6,0.1,5.1-0.2c0.1,1.9,0,3.8,0,5.6c0,0,3.6,0,5.2,0
	c0.1,1.8,0,3.1,0.1,4.9C74.2,48.6,70.4,48.6,70.4,48.6z"/>
</svg>
