<?xml version="1.0" encoding="utf-8"?>
<!-- Generator: Adobe Illustrator 21.0.0, SVG Export Plug-In . SVG Version: 6.00 Build 0)  -->
<svg version="1.1" id="Layer_1" xmlns="http://www.w3.org/2000/svg" xmlns:xlink="http://www.w3.org/1999/xlink" x="0px" y="0px"
	 viewBox="0 0 500 354.9" style="enable-background:new 0 0 500 354.9;" xml:space="preserve">
<style type="text/css">
	.st0{fill:#00303F;}
	.st1{fill:#DCAE1D;}
</style>
<g>
	<path class="st0" d="M499.3,317.3c0,0,0,0,0,0.1c-0.9,3.7-0.8,4.7-2.4,8.8c-6.4,16.8-22.7,28.7-41.8,28.7H45.3
		c-19.2,0-35.5-12-41.9-28.7c-1.7-4.1-2.3-6.7-2.4-8.9l0.1-0.1v-0.1c0.1-2.3,5.2-4.1,11.4-4.1c6.8,0,13.2,2.3,14.3,5.1
		c0,0,0,0.1,0,0.3h0.1c2.1,4.4,2,4.8,6.3,8c3.4,2.4,7.6,4.1,12,4.1H455c4.4,0,8.4-1.7,11.9-4.1c4.1-3.2,4.8-5.5,6.3-8.3l0.1-0.1
		c1.1-2.8,7.6-4.9,14.2-4.9C494.3,312.8,499.5,314.7,499.3,317.3z"/>
	<path class="st0" d="M500,75.7v11.7c0,4-5.6,7.2-12.3,7.2s-12.3-3.2-12.3-7.2V75.7c0-9.9-7.6-17.6-17.4-17.6c0,0-35.1,0.3-46.9,0
		c-19.1-0.4-22-11.7-26-17.9c-4.9-8-2-15.4-35-15.5c-13.2-0.1-53.3,0-53.3,0c-7.4,0-18.3,5.5-22.8,15.6c-4.3,10-13.1,17.4-26.2,17.6
		c-34.6,0.7-119.9,0.4-138,0c-7.4-0.1-8.7-6-9.1-8.4c-1.1-7.7-8.4-8.8-25-8.3c-15.4,0.4-18.7,2.9-19.6,9.5
		c-0.4,3.4-6.9,6.9-13.7,7.2c-10,0.4-17.6,7.5-17.6,17.6v11.7c0,4-5.6,7.2-12.3,7.2S0,91.3,0,87.3V75.6c0-22.3,16.3-39.9,37.9-42.2
		c2.4-8.9,8.8-16.6,38.3-17.1c25.8-0.4,33,6.1,36.8,15.1c0.4,1.1,1.3,1.9,2.7,1.9c0,0,93-0.3,125.5,0C250,33.5,256,21.5,256,21.5
		C263.9,8.4,280.4,0,296.7,0h65.7c13.6,0,30.3,4.4,37.8,20.3c1.9,4,3.4,13.4,15.7,13.1c10.9-0.1,42.1,0,42.1,0
		C481.5,33.5,500,52,500,75.7z"/>
	<g>
		<g>
			<g>
				<path class="st1" d="M155.3,300.6c-3.8,0-7.2-1.8-9.8-4.4l-120.6-145v136.6c0,7-5.4,12.4-12.4,12.4s-12.4-5.4-12.4-12.4v-171
					c0-5.2,3.2-10,8.2-11.8s10.4-0.2,13.8,3.8l120.8,144.6V117c0-7,5.4-12.4,12.4-12.4c6.8,0,12.4,5.4,12.4,12.4v171
					c0,5.2-3.4,9.8-8.2,11.8C158,300.4,156.5,300.6,155.3,300.6z"/>
			</g>
			<path class="st0" d="M280.3,303c-14,0-27.5-2.8-40.2-8.2c-12-5.2-23-12.4-32.5-22c-9.4-9.2-16.8-20.2-22-32.4
				c-5.4-12.4-8-25.6-8-39.2c0-13.8,2.8-27,8-39.4c5.2-12,12.8-23,22.2-32.2c9.4-9.4,20.7-16.8,33-22c12.8-5.2,26.2-8,39.9-8
				c22.4,0,43.5,7,60.9,20.4c5.4,4.2,6.4,12,2.4,17.4c-4.2,5.4-12.2,6.4-17.4,2.4c-13.2-10.2-29-15.4-45.9-15.4
				c-10.4,0-20.7,2-30.5,6c-9.2,4-17.8,9.4-25,16.8c-7,7-12.8,15.2-16.8,24.4s-6,19.2-6,29.4s2,20,6,29.4c4,9.2,9.4,17.4,16.8,24.4
				c14.8,14.8,34.2,23,54.9,23c9.2,0,18-1.8,26.5-4.8c8.2-3,15.8-7.4,22.4-13c5.2-4.4,13-3.8,17.4,1.6c4.4,5.2,3.8,13.2-1.4,17.4
				c-9,7.4-19,13.2-29.7,17.2C304.3,300.8,292.3,303,280.3,303z"/>
			<g>
				<path class="st1" d="M432.4,302.8c-54.2,0-69.5-25.4-71.1-28.4c-3.2-6-1-13.8,5-17s13.4-1,16.8,4.8c0.6,0.4,3,4,9.4,7.4
					c12.4,6.8,28.7,8.2,39.9,8.2c16.4,0,29-3.4,36-10c5.4-5,6.8-11.2,6.8-15.4c0-9.2-2.8-16.2-8.8-22c-7.8-7.8-21.2-13.4-40.2-17.2
					c-13.8-3-25.7-7.8-35.2-14.2c-8-5.4-14.2-12.2-18.8-20.2c-7.2-12.4-7.2-23.6-7.2-26.6c0-13.2,6.2-26.4,17-36
					c5.2-4.8,11.8-8.4,19-11.2c7.4-2.8,15.8-4,24.2-4c48.7,0,62.9,23,64.5,25.6c3.2,6,1.2,13.8-4.8,17s-13.4,1.2-16.8-4.4
					c-0.4-0.4-2.8-3.2-8.2-6.4c-6-3-16.8-6.8-34.7-6.8c-13.8,0-22,4.8-26.7,9c-5.2,4.8-8.4,11.2-8.4,17.8v0.6c0,1,0,7.2,4.4,14.4
					c2.8,4.4,6.4,8.2,11.4,11.4c6.4,4.2,15,7.4,25.2,9.8c24,4.8,41.2,12.4,52.7,23.6c10.8,10.4,16.2,24,16.2,39.8
					c0,13-5.2,25-14.8,34C473.6,297.4,455.6,302.8,432.4,302.8z"/>
			</g>
		</g>
	</g>
</g>
</svg>
