<?xml version="1.0" encoding="utf-8"?>
<!-- Generator: Adobe Illustrator 21.0.0, SVG Export Plug-In . SVG Version: 6.00 Build 0)  -->
<svg version="1.1" id="Layer_1" xmlns="http://www.w3.org/2000/svg" xmlns:xlink="http://www.w3.org/1999/xlink" x="0px" y="0px"
	 viewBox="0 0 388.2 388.2" style="enable-background:new 0 0 388.2 388.2;" xml:space="preserve">
<style type="text/css">
	.st0{display:none;fill:#BE3127;}
	.st1{fill:#BE3127;}
	.st2{fill:#FDFCFC;}
</style>
<g>
	<path class="st0" d="M0.1,225.6c0-22.2,0-44.5,0-66.7c5.2-4.2,4.7-10.6,6.1-16.1C32.2,41.8,136.8-20.6,238.4,3.3
		C336.1,26.2,401.9,122,385.8,222.4c-14.1,87.8-85.6,155.4-174.2,163.4C117,394.4,29.1,332.1,6,240.3C4.7,235.3,5.3,229.2,0.1,225.6
		z M209.4,154.9c-0.1,0-0.2,0-0.3,0c-1.2-21.6-2.4-43.3-3.7-64.9c-0.7-10.6-1.3-21.1-2.6-31.6c-1.8-14.4-9.6-21.8-23.1-20.3
		c-21.1,2.3-41.6,7.6-61,16.3c-13.1,5.9-16.3,19.1-9.6,31.9c1.6,3.1,3.8,5.9,5.7,8.9c16.3,24.8,33.1,49.3,47.9,75.1
		c2.7,4.8,6,9.3,9.5,13.6c6.3,7.8,14.6,11.2,24.2,7.9c9.3-3.1,12.5-11.1,13-20.2C209.6,165.9,209.4,160.4,209.4,154.9z M272.2,324.1
		c5.4-0.3,10.6-2.2,14.7-6.2c11.8-11.2,22.1-23.5,29.1-38.3c6.3-13.3,2.7-24.3-10.8-29.7c-19.6-7.8-39.7-14.5-59.8-21
		c-8.2-2.6-16.2-0.2-21.9,6.6c-5.7,6.8-6.8,14.5-2.7,22.6c10.1,19.7,21.8,38.5,34.3,56.8C259,320.6,264.8,323.8,272.2,324.1z
		 M106.1,175.1c-10.6,0.2-18.2,5.2-20.7,14.5c-4.8,17.7-5.3,35.9-0.9,53.7c3,12.2,11.7,18,23.9,15.2c21.6-4.9,42.6-11.8,63.1-20
		c16.2-6.5,17.2-26.3,3-36.5c-2.8-2-6.1-3.6-9.3-4.9c-15.3-6.3-30.7-12.5-46.2-18.5C114.3,176.8,109.3,175.9,106.1,175.1z
		 M237.9,217.3c22.7-4.3,45.4-8.8,67-17c12-4.6,15.8-15.2,10.8-27.3c-6-14.5-15-27.3-26-38.5c-12.6-12.7-24.3-12.2-35.7,2.1
		c-12.2,15.4-23.4,31.4-34.9,47.3c-5.2,7.2-5.4,15-1.4,22.8C221.8,214.9,229.1,217.5,237.9,217.3z M209.6,292c0-8.6,0.1-17.2,0-25.8
		c-0.1-12.4-4.3-19.2-13.6-22.9c-10-3.9-18.1-0.1-24.5,7c-13.5,15-27,30.1-39.4,46c-9.8,12.6-6.8,25.3,7.1,33.2
		c12.7,7.3,26.4,12.6,41,14.9c17.8,2.8,27-4,28.4-22.2C209.4,312.2,209.3,292,209.6,292z"/>
	<circle class="st1" cx="194.1" cy="194.1" r="194.1"/>
	<path class="st2" d="M209.4,154.9c0,5.5,0.2,11.1,0,16.6c-0.4,9.2-3.7,17.1-13,20.2c-9.6,3.3-17.9-0.1-24.2-7.9
		c-3.5-4.3-6.8-8.8-9.5-13.6c-14.8-25.8-31.6-50.3-47.9-75.1c-1.9-2.9-4.1-5.8-5.7-8.9c-6.7-12.8-3.4-26,9.6-31.9
		c19.3-8.7,39.9-14,61-16.3c13.5-1.5,21.2,5.9,23.1,20.3c1.3,10.5,1.9,21.1,2.6,31.6c1.3,21.6,2.5,43.3,3.7,64.9
		C209.2,154.9,209.3,154.9,209.4,154.9z M194.1,154.3c-1.8-16.4-2.8-36-3.6-55.7c-0.5-12.1-1.7-24.1-2.7-36.2
		c-0.4-4.7-1.3-10.1-7.5-9.1c-18.9,3-37.6,7.2-55.1,15.1c-4.4,2-4.9,6.1-2.7,10.3c1.4,2.6,3.2,5.1,4.9,7.7
		c16.7,25.2,33.8,50.1,48.7,76.4c2.2,3.9,5.1,7.5,7.8,11.1c1.5,2.1,3.7,3.7,6.4,3c2.8-0.7,3.7-3.3,3.8-5.9
		C194.2,166.5,194.1,162,194.1,154.3z"/>
	<path class="st2" d="M272.2,324.1c-7.4-0.3-13.1-3.5-17-9.1c-12.5-18.3-24.2-37.1-34.3-56.8c-4.1-8-3-15.8,2.7-22.6
		c5.7-6.8,13.7-9.3,21.9-6.6c20.1,6.5,40.2,13.2,59.8,21c13.5,5.4,17.1,16.5,10.8,29.7c-7,14.7-17.3,27.1-29.1,38.3
		C282.8,321.9,277.6,323.8,272.2,324.1z M303,271.2c0.8-5.7-2.8-7.2-6-8.4c-17.5-6.3-35-12.3-52.6-18.3c-2.9-1-5.9-1.5-8.4,0.9
		c-3.4,3.3-1.4,6.6,0.4,9.5c9.5,15.9,19,32,29,47.6c4.7,7.3,7.9,7.2,14.4,0.6c7.8-7.8,14.8-16.5,20.3-26.1
		C301.4,274.9,302.3,272.6,303,271.2z"/>
	<path class="st2" d="M106.1,175.1c3.2,0.9,8.2,1.7,12.9,3.5c15.5,6,30.8,12.2,46.2,18.5c3.2,1.3,6.5,2.9,9.3,4.9
		c14.2,10.2,13.1,30-3,36.5c-20.5,8.3-41.5,15.2-63.1,20c-12.2,2.7-20.8-3-23.9-15.2c-4.4-17.8-4-36,0.9-53.7
		C87.9,180.2,95.5,175.2,106.1,175.1z M96.8,217.6c0.4,6,0.3,12.1,1.3,18c1.3,7.7,3.9,9.3,11.5,7c17.3-5.3,34.4-11.1,51.6-16.5
		c3.6-1.1,7-2.5,7-6.6c0.1-4.2-3.6-5.8-6.8-7.1c-11.6-4.8-23.2-9.6-34.8-14.2C103.7,189.2,97.6,181.3,96.8,217.6z"/>
	<path class="st2" d="M237.9,217.3c-8.8,0.2-16.1-2.3-20.3-10.5c-4-7.8-3.8-15.6,1.4-22.8c11.5-15.9,22.8-31.9,34.9-47.3
		c11.3-14.3,23-14.8,35.7-2.1c11.1,11.1,20,23.9,26,38.5c5,12.1,1.2,22.7-10.8,27.3C283.3,208.5,260.6,213,237.9,217.3z
		 M239.7,201.8c18.2-4.3,38.3-8.3,57.7-15.1c4.8-1.7,5.3-5.6,3.2-9.8c-5.9-11.7-13.2-22.5-22.3-32c-4.7-4.9-8.6-4-12.3,1
		c-11.3,15.4-22.8,30.6-33.8,46.2C228.3,197.8,230.9,201.5,239.7,201.8z"/>
	<path class="st2" d="M208.6,322.3c-1.4,18.1-10.6,25-28.4,22.2c-14.6-2.3-28.3-7.6-41-14.9c-13.8-7.9-16.9-20.5-7.1-33.2
		c12.4-15.9,25.9-31,39.4-46c6.4-7.1,14.5-10.9,24.5-7c9.3,3.7,13.5,10.5,13.6,22.9c0.1,8.6,0,17.2,0,25.8
		C209.3,292,209.4,312.2,208.6,322.3z M194.3,292.1c0-8.1,0-16.1,0-24.2c0-3.4,0.9-7.4-3.2-9.3c-3.8-1.8-6.9,0.4-9.2,3.1
		c-12.2,14-24.4,28.1-36.5,42.3c-4,4.7-4.1,9.3,1.9,12.4c11.2,5.8,22.7,10.8,35.3,12.6c8.1,1.2,10.3-0.3,10.8-8.4
		C193.9,311.2,194,292.1,194.3,292.1z"/>
</g>
</svg>
