<?xml version="1.0" encoding="utf-8"?>
<!-- Generator: Adobe Illustrator 21.0.0, SVG Export Plug-In . SVG Version: 6.00 Build 0)  -->
<svg version="1.1" id="Layer_1" xmlns="http://www.w3.org/2000/svg" xmlns:xlink="http://www.w3.org/1999/xlink" x="0px" y="0px"
	 viewBox="0 0 100 100" style="enable-background:new 0 0 100 100;" xml:space="preserve">
<style type="text/css">
	.st0{fill:#475993;}
</style>
<g>
	<path class="st0" d="M65.1,99.9c0-11.9,0-23.7,0-35.7c0.8,0,1.5,0,2.3,0c3.2,0,6.4,0,9.6,0c1.4,0,2.4-0.6,2.6-2
		c0.5-3.8,1-7.6,1.3-11.4c0.2-1.5-0.9-2.4-2.6-2.5c-3.8,0-7.6,0-11.5,0c-0.5,0-1.1,0-1.7,0c0-4.1-0.2-8.1,0.1-12
		c0.2-2.9,2.2-4.6,5.2-4.8c2.4-0.2,4.8-0.1,7.2-0.1c2.2,0,2.8-0.7,2.9-2.8c0-2.9,0-5.7,0-8.6c0-1.9-0.6-2.6-2.5-2.6
		c-4.2,0-8.4-0.3-12.5,0.2c-9.6,1.3-15.3,7.9-15.8,17.8c-0.2,3.7-0.1,7.4-0.1,11.2c0,0.5,0,1.1,0,1.8c-2.9,0-5.6,0-8.3,0
		c-2.4,0-3.1,0.7-3.1,3.1c0,3.5,0.1,6.9,0.1,10.4c0,1.6,0.8,2.4,2.5,2.4c2.9,0,5.8,0,8.8,0c0,11.9,0,23.7,0,35.7
		c-0.3,0-0.6,0.1-0.9,0.1c-11.7,0-23.3,0.1-35,0c-6.9,0-12.2-4.5-13.4-11.2C0,88.1,0,87.3,0,86.6c0-24.4,0-48.9,0-73.3
		C0,6,6,0,13.3,0c24.4,0,48.9,0,73.3,0c7.1,0,13,5.6,13.3,12.7c0.1,3.5,0.1,7,0.1,10.5c0,20.9,0,41.8,0,62.6
		c0,7.2-4.3,12.6-11.2,13.9c-0.2,0-0.5,0.1-0.8,0.1C80.4,99.9,72.9,99.9,65.1,99.9z"/>
</g>
</svg>
