<?xml version="1.0" encoding="utf-8"?>
<!-- Generator: Adobe Illustrator 21.0.0, SVG Export Plug-In . SVG Version: 6.00 Build 0)  -->
<svg version="1.1"
	 id="svg2" inkscape:output_extension="org.inkscape.output.svg.inkscape" inkscape:version="0.47 r22583" sodipodi:docname="yelp.svg" sodipodi:version="0.32" xmlns:cc="http://creativecommons.org/ns#" xmlns:dc="http://purl.org/dc/elements/1.1/" xmlns:inkscape="http://www.inkscape.org/namespaces/inkscape" xmlns:rdf="http://www.w3.org/1999/02/22-rdf-syntax-ns#" xmlns:sodipodi="http://sodipodi.sourceforge.net/DTD/sodipodi-0.dtd" xmlns:svg="http://www.w3.org/2000/svg"
	 xmlns="http://www.w3.org/2000/svg" xmlns:xlink="http://www.w3.org/1999/xlink" x="0px" y="0px" viewBox="0 0 100 100"
	 style="enable-background:new 0 0 100 100;" xml:space="preserve">
<style type="text/css">
	.st0{display:none;}
	.st1{display:inline;fill:#FF0000;}
	.st2{display:inline;fill:#FFFFFF;}
	.st3{fill:#FFFFFF;}
</style>
<sodipodi:namedview  bordercolor="#666666" borderopacity="1.0" id="base" inkscape:current-layer="layer1" inkscape:cx="126.52606" inkscape:cy="97.100122" inkscape:document-units="px" inkscape:pageopacity="0.0" inkscape:pageshadow="2" inkscape:window-height="685" inkscape:window-maximized="0" inkscape:window-width="741" inkscape:window-x="1" inkscape:window-y="298" inkscape:zoom="0.7" pagecolor="#ffffff" showgrid="false">
	</sodipodi:namedview>
<g id="layer1" transform="translate(-373.642,-318.344)" inkscape:groupmode="layer" inkscape:label="Layer 1" class="st0">
	
		<path id="rect1942" inkscape:export-filename="C:\Documents and Settings\Molumen\Desktop\path3511111.png" inkscape:export-xdpi="7.7063322" inkscape:export-ydpi="7.7063322" class="st1" d="
		M458.5,318.3h-69.8c-8.3,0-15.1,6.8-15.1,15.1v69.8c0,8.3,6.8,15.1,15.1,15.1h69.8c8.3,0,15.1-6.8,15.1-15.1v-69.8
		C473.6,325.1,466.9,318.3,458.5,318.3z"/>
	<path id="path4132" sodipodi:nodetypes="ccccc" class="st2" d="M396.1,336.5c6.3-5.6,13.7-9.6,25-7.5v36.3
		c-0.5,1.7-1.9,2.1-3.2,1.2L396.1,336.5z"/>
	<path id="path4134" sodipodi:nodetypes="ccccc" class="st2" d="M441.2,349.7c5.1,3.2,10.7,9.5,12.3,18.8l-24.3,3.9
		c-1.4-0.5-2.5-1.4-2.3-3.5L441.2,349.7L441.2,349.7z"/>
	<path id="path4136" sodipodi:nodetypes="ccccc" class="st2" d="M429.9,380.8c-1.6,0.4-2.4,1.3-2,3.2l12.3,20.8
		c5.5-2.5,10.9-8.4,13.4-17L429.9,380.8L429.9,380.8z"/>
	<path id="path4138" sodipodi:nodetypes="ccccc" class="st2" d="M417.3,383.8c1.6-0.2,3.1-0.2,3.6,1.5l0.7,23.2
		c-8,0.6-14.7-1.5-19.2-7.8L417.3,383.8z"/>
	<path id="path4140" sodipodi:nodetypes="ccccc" class="st2" d="M414.1,373c1.2,1.4,1.8,2.9,0.3,4.6l-22.4,7.8
		c-2.6-7.3-2.4-14.1,0-20.6L414.1,373L414.1,373z"/>
</g>
<g>
	
		<image style="overflow:visible;" width="100" height="100" id="XMLID_28_" xlink:href="EA664CEE3F7743F1.png"  transform="matrix(1 0 0 1 4.577637e-05 1.525879e-05)">
	</image>
	<g>
		<circle class="st3" cx="66" cy="34" r="3.6"/>
		<path class="st3" d="M50,34.1c-8.8,0-15.9,7.1-15.9,15.9S41.2,65.9,50,65.9c8.8,0,15.9-7.1,15.9-15.9S58.8,34.1,50,34.1z M50,59.6
			c-5.3,0-9.6-4.3-9.6-9.6s4.3-9.6,9.6-9.6c5.3,0,9.6,4.3,9.6,9.6S55.3,59.6,50,59.6z"/>
		<path class="st3" d="M81.1,38.3c-0.1-3.1-0.6-5.5-1.5-7.8c-0.9-2.4-2.2-4.3-3.9-6.1c-1.8-1.8-3.7-3-6.1-3.9
			c-2.3-0.9-4.7-1.4-7.8-1.5c-3.1-0.1-4.1-0.2-11.7-0.2c-7.7,0-8.7,0-11.7,0.2c-3.1,0.1-5.5,0.6-7.8,1.5c-2.4,0.9-4.3,2.2-6.1,3.9
			c-1.8,1.8-3,3.7-3.9,6.1c-0.9,2.3-1.4,4.8-1.5,7.8c-0.1,3.1-0.2,4.1-0.2,11.7s0,8.7,0.2,11.7c0.1,3.1,0.6,5.5,1.5,7.8
			c0.9,2.4,2.2,4.3,3.9,6.1c1.8,1.8,3.7,3,6.1,3.9c2.3,0.9,4.7,1.4,7.8,1.5c3.1,0.1,4.1,0.2,11.7,0.2c7.7,0,8.7,0,11.7-0.2
			c3.1-0.1,5.5-0.6,7.8-1.5c2.4-0.9,4.3-2.2,6.1-3.9c1.8-1.8,3-3.7,3.9-6.1c0.9-2.3,1.4-4.8,1.5-7.8c0.1-3.1,0.2-4.1,0.2-11.7
			S81.2,41.3,81.1,38.3z M74.8,61.4c-0.1,2.4-0.4,4.2-1.1,5.8c-0.6,1.6-1.4,2.7-2.5,3.9c-1.2,1.2-2.3,1.9-3.9,2.5
			c-1.7,0.7-3.5,1-5.8,1.1C58.5,75,57.6,75,50,75c-7.6,0-8.5,0-11.5-0.2c-2.4-0.1-4.2-0.4-5.8-1.1c-1.6-0.6-2.7-1.4-3.9-2.5
			c-1.2-1.2-1.9-2.3-2.5-3.9c-0.7-1.7-1-3.5-1.1-5.8C25,58.5,25,57.6,25,50s0-8.5,0.2-11.5c0.1-2.4,0.4-4.2,1.1-5.8
			c0.6-1.6,1.4-2.7,2.5-3.9c1.2-1.2,2.3-1.9,3.9-2.5c1.7-0.7,3.5-1,5.8-1.1C41.5,25,42.4,25,50,25c7.6,0,8.5,0,11.5,0.2
			c2.4,0.1,4.2,0.4,5.8,1.1c1.6,0.6,2.7,1.4,3.9,2.5c1.2,1.2,1.9,2.3,2.5,3.9c0.7,1.7,1,3.5,1.1,5.8C75,41.5,75,42.4,75,50
			S75,58.5,74.8,61.4z"/>
	</g>
</g>
</svg>
