<?xml version="1.0" encoding="utf-8"?>
<!-- Generator: Adobe Illustrator 21.0.0, SVG Export Plug-In . SVG Version: 6.00 Build 0)  -->
<svg version="1.1" id="Layer_1" xmlns="http://www.w3.org/2000/svg" xmlns:xlink="http://www.w3.org/1999/xlink" x="0px" y="0px"
	 viewBox="0 0 150 150" style="enable-background:new 0 0 150 150;" xml:space="preserve">
<style type="text/css">
	.st0{fill:none;}
	.st1{display:none;}
	.st2{fill:#037CE0;}
	.st3{display:inline;fill:#037CE0;}
</style>
<path id="SVGID_x5F_1_x5F_" class="st0" d="M171.8,85.6c0,45.6-36.9,82.5-82.5,82.5S6.8,131.2,6.8,85.6S43.8,3.1,89.3,3.1
	S171.8,40.1,171.8,85.6z"/>
<text class="st1"><textPath  xlink:href="#SVGID_x5F_1_x5F_" startOffset="9260.8398%"  style="display:inline;">
<tspan  class="st2" style="font-family:'Catamaran-ExtraBold'; font-size:27px;">Learner’s Permit</tspan></textPath>
</text>
<path id="SVGID_x5F_2_x5F_" class="st0" d="M171.8,85.6c0-45.6-36.9-82.5-82.5-82.5S6.8,40.1,6.8,85.6s36.9,82.5,82.5,82.5
	S171.8,131.2,171.8,85.6z"/>
<text class="st1"><textPath  xlink:href="#SVGID_x5F_2_x5F_" startOffset="14200%"  style="display:inline;">
<tspan  class="st2" style="font-family:'Catamaran-ExtraBold'; font-size:27px; letter-spacing:-20;">Auto Shop</tspan></textPath>
</text>
<g>
	<path class="st2" d="M22.3,45l-5.1,8.9l-13-7.4l1.7-3l10.6,6l3.2-5.6L22.3,45z"/>
	<path class="st2" d="M25.5,34.2l-4.3,5.3c1.2,0.5,2.2,0.2,3.2-1c0.6-0.8,1.1-1.7,1.2-2.9l2.5,0.8c0,0.6-0.2,1.3-0.5,2
		c-0.3,0.7-0.7,1.4-1.2,2.1c-1.2,1.5-2.6,2.4-4,2.6s-2.9-0.2-4.2-1.3c-0.9-0.7-1.5-1.5-1.9-2.4c-0.4-0.9-0.5-1.8-0.3-2.8
		c0.2-0.9,0.6-1.8,1.3-2.7c0.7-0.8,1.5-1.4,2.3-1.7c0.9-0.3,1.7-0.3,2.6,0c0.9,0.2,1.7,0.7,2.5,1.3L25.5,34.2z M19.7,38.3l2.3-2.8
		c-0.5-0.3-0.9-0.4-1.4-0.4c-0.4,0-0.8,0.2-1.1,0.6C19.1,36.1,19,36.5,19,37S19.3,37.9,19.7,38.3z"/>
	<path class="st2" d="M25.4,30.2l-2.4-1.3c0.2-0.5,0.5-1.1,1-1.8c0.5-0.7,1-1.3,1.5-1.7c0.7-0.6,1.4-1,2.1-1.2
		c0.7-0.2,1.5-0.2,2.2,0c0.7,0.2,1.3,0.6,1.9,1.2l4.5,5l-1.4,1.3l-1.4-0.3c0,1.2-0.3,2.1-1,2.8c-1,0.9-1.9,1.3-2.8,1.2
		c-0.9,0-1.7-0.5-2.5-1.3c-0.7-0.8-1-1.7-0.8-2.5c0.2-0.9,0.7-1.8,1.7-2.6l1.2-1.1c-0.3-0.3-0.7-0.5-1.1-0.5c-0.4,0-0.7,0.1-1.1,0.4
		c-0.3,0.3-0.6,0.7-0.9,1.1C25.8,29.3,25.6,29.8,25.4,30.2z M29.2,32.2c0.2,0.2,0.4,0.3,0.7,0.3c0.3,0,0.5-0.1,0.7-0.3
		c0.5-0.4,0.8-1.1,0.8-1.9l-0.9-1l-1.2,1.1c-0.3,0.2-0.4,0.5-0.4,0.8C28.9,31.6,29,31.9,29.2,32.2z"/>
	<path class="st2" d="M40.3,27.5l-2.8,1.9l-6-8.8l1.4-1l1.6,0.7c0.2-0.6,0.5-1.2,0.9-1.9c0.4-0.6,0.8-1.1,1.2-1.4l2.1,1.9
		c-0.4,0.3-0.8,0.7-1.2,1.3c-0.4,0.6-0.7,1.3-0.9,1.9L40.3,27.5z"/>
	<path class="st2" d="M46.8,23.7l-3.1,1.5L39,15.6l1.9-0.9l1,0.7c0.4-0.7,0.9-1.3,1.4-1.9c0.6-0.6,1.1-1,1.7-1.3
		c1.2-0.6,2.2-0.7,3.1-0.2c0.9,0.4,1.6,1.2,2.1,2.4l3,6.1L50.2,22l-2.8-5.9c-0.2-0.5-0.5-0.8-0.8-1c-0.3-0.2-0.7-0.2-1.1,0
		c-0.6,0.3-1.2,0.9-1.8,1.9L46.8,23.7z"/>
	<path class="st2" d="M63,13.1L56.4,15c0.7,1.1,1.7,1.4,3.2,1c1-0.3,1.9-0.8,2.7-1.6l1.6,2c-0.4,0.5-0.9,0.9-1.5,1.3
		c-0.6,0.4-1.4,0.7-2.2,1c-1.9,0.5-3.5,0.5-4.8-0.1c-1.3-0.6-2.3-1.8-2.7-3.5c-0.3-1.1-0.4-2.1-0.1-3.1c0.2-1,0.7-1.8,1.3-2.4
		s1.5-1.2,2.6-1.5c1-0.3,2-0.3,2.8,0c0.9,0.3,1.6,0.8,2.2,1.5c0.6,0.7,1,1.5,1.3,2.5L63,13.1z M55.9,13.1l3.5-1
		c-0.2-0.5-0.5-0.9-0.9-1.1c-0.4-0.2-0.8-0.3-1.3-0.1c-0.5,0.1-0.8,0.4-1,0.8C55.8,12.1,55.8,12.6,55.9,13.1z"/>
	<path class="st2" d="M68.8,16.8l-3.4,0.5L63.9,6.7l1.7-0.2l1.2,1.4c0.5-0.5,1-0.9,1.6-1.3c0.6-0.4,1.2-0.6,1.7-0.7l1,2.6
		c-0.5,0.1-1.1,0.3-1.7,0.7c-0.6,0.4-1.2,0.8-1.6,1.3L68.8,16.8z"/>
	<path class="st2" d="M74.1,0c0.5,0,1,0.2,1.3,0.5C75.8,0.9,76,1.4,76,2.1c0,0.8-0.2,1.7-0.8,2.6c-0.6,0.9-1.3,1.5-2.2,2l-0.8-1.5
		C73,4.5,73.4,4,73.5,3.5c-0.3-0.1-0.5-0.3-0.8-0.6c-0.2-0.3-0.4-0.7-0.4-1c0-0.5,0.1-0.9,0.5-1.3C73.2,0.2,73.6,0,74.1,0z"/>
	<path class="st2" d="M76.2,15.2l1.1-2.2c0.4,0.2,0.9,0.4,1.5,0.6c0.5,0.2,1,0.2,1.4,0.3c0.4,0,0.7,0,0.9-0.1
		c0.3-0.1,0.4-0.3,0.4-0.5c0-0.2-0.1-0.4-0.4-0.6c-0.2-0.2-0.6-0.4-1-0.5c-1.1-0.4-1.9-0.9-2.6-1.5c-0.7-0.6-1-1.3-0.9-2.1
		c0-1.1,0.5-1.9,1.3-2.4c0.8-0.6,1.9-0.8,3.3-0.8c0.6,0,1.2,0.1,1.9,0.4c0.7,0.2,1.3,0.5,1.8,0.9l-1.1,2.2c-1-0.5-1.9-0.8-2.7-0.8
		c-0.3,0-0.6,0-0.8,0.2C80.1,8.3,80,8.4,80,8.6c0,0.2,0.4,0.5,1.3,0.9c2.4,0.9,3.6,2.2,3.5,3.7c0,1.1-0.5,1.9-1.2,2.5
		c-0.8,0.6-1.9,0.8-3.3,0.8c-0.6,0-1.3-0.1-2.1-0.4C77.3,15.9,76.7,15.6,76.2,15.2z"/>
	<path class="st2" d="M94.3,18.3L91,17.3L95,3l5.3,1.5c1.1,0.3,2,0.8,2.8,1.4c0.8,0.6,1.3,1.3,1.6,2.2c0.3,0.9,0.3,1.9,0,2.9
		c-0.3,1.1-0.8,1.9-1.6,2.5c-0.8,0.6-1.6,0.9-2.6,1c-1,0.1-2,0-3.1-0.3l-1.8-0.5L94.3,18.3z M99.5,7.1l-1.9-0.5L96.3,11l1.9,0.5
		c0.7,0.2,1.3,0.2,1.9-0.1c0.6-0.3,0.9-0.7,1.1-1.4c0.2-0.8,0.2-1.4-0.2-1.9C100.8,7.7,100.2,7.3,99.5,7.1z"/>
	<path class="st2" d="M113.4,21.2l-6.1-3c-0.3,1.3,0.3,2.2,1.7,2.9c0.9,0.4,1.9,0.6,3.1,0.6l-0.2,2.6c-0.6,0.1-1.3,0.1-2,0
		c-0.7-0.1-1.5-0.4-2.3-0.7c-1.8-0.8-2.9-2-3.5-3.3c-0.6-1.4-0.5-2.8,0.3-4.4c0.5-1,1.1-1.8,1.9-2.4c0.8-0.6,1.7-0.9,2.6-0.9
		c1,0,1.9,0.2,2.9,0.6c1,0.5,1.7,1.1,2.1,1.9c0.5,0.8,0.7,1.6,0.6,2.5c0,0.9-0.3,1.8-0.7,2.8L113.4,21.2z M108.1,16.4l3.2,1.6
		c0.2-0.5,0.2-1,0-1.4c-0.1-0.4-0.4-0.8-0.9-1c-0.4-0.2-0.9-0.2-1.3-0.1C108.7,15.7,108.4,16,108.1,16.4z"/>
	<path class="st2" d="M115.3,27.8l-2.9-1.9l5.9-8.8l1.5,1l0,1.8c0.6,0,1.3,0,2.1,0.1c0.7,0.1,1.3,0.3,1.8,0.6l-1,2.7
		c-0.4-0.3-1-0.5-1.7-0.6c-0.7-0.1-1.4-0.2-2.1-0.1L115.3,27.8z"/>
	<path class="st2" d="M137.5,34.2c-0.1,0.9-0.6,1.8-1.5,2.7l-4.9,4.9l-2.4-2.4l4.6-4.6c0.4-0.4,0.6-0.7,0.7-1.1c0.1-0.3,0-0.6-0.4-1
		c-0.2-0.2-0.5-0.4-0.9-0.5c-0.4-0.1-0.8-0.3-1.4-0.4l-0.2,0.2l-4.9,4.9l-2.4-2.4l4.6-4.6c0.4-0.4,0.6-0.7,0.7-1.1
		c0.1-0.3,0-0.6-0.4-1c-0.2-0.2-0.5-0.4-0.9-0.6c-0.4-0.2-0.9-0.3-1.4-0.4l-5.1,5.1l-2.4-2.4l7.5-7.5l1.5,1.5l-0.4,1.2
		c0.8,0.1,1.5,0.4,2.2,0.7c0.7,0.3,1.3,0.7,1.7,1.1c1,1,1.4,2,1.2,3.1c0.7,0.2,1.4,0.4,2.1,0.7c0.7,0.3,1.2,0.7,1.7,1.1
		C137.2,32.4,137.6,33.3,137.5,34.2z"/>
	<path class="st2" d="M131.5,43.3l8.7-6.1l2,2.8l-8.7,6.1L131.5,43.3z M142.4,37.8c-0.3-0.4-0.4-0.9-0.3-1.4
		c0.1-0.5,0.3-0.9,0.8-1.2c0.4-0.3,0.9-0.4,1.4-0.3c0.5,0.1,0.9,0.3,1.2,0.8c0.3,0.4,0.4,0.9,0.3,1.4c-0.1,0.5-0.4,0.9-0.8,1.2
		c-0.4,0.3-0.9,0.4-1.4,0.3C143.1,38.5,142.7,38.2,142.4,37.8z"/>
	<path class="st2" d="M146.7,48.1l-2,1.8l-1.5-2.6l-3.1,1.7c-0.4,0.2-0.7,0.5-0.9,0.9c-0.1,0.4-0.1,0.7,0.1,1.1c0.2,0.4,0.5,0.7,1,1
		l-1.6,2c-0.3-0.1-0.6-0.4-1-0.7c-0.4-0.4-0.7-0.7-0.9-1.1c-0.7-1.2-0.9-2.3-0.7-3.4c0.2-1.1,0.9-2,2-2.6l3.5-2l-0.7-1.3l2.3-1.3
		l0.7,1.3l2.4-1.3l2.1,2.7l-2.8,1.6L146.7,48.1z"/>
</g>
<g>
	<path class="st2" d="M43.7,122.7l-5.8,14.7l-2.8-2l1.4-3.4l-4-3.7l-3,1.6l-2.5-2.3l14.3-7.2L43.7,122.7z M39.5,124.8l-4.4,2.3
		l2.5,2.3L39.5,124.8z"/>
	<path class="st2" d="M51.7,133.3l3,1.7l-5.2,9.3l-1.7-0.9l-0.2-1.4c-0.8,0-1.6,0-2.3-0.1c-0.8-0.1-1.5-0.3-2-0.7
		c-1.2-0.7-1.8-1.5-2-2.4c-0.1-1,0.1-2,0.7-3.1l3.3-5.9l3,1.7l-3.2,5.7c-0.3,0.5-0.4,0.9-0.3,1.2c0,0.4,0.3,0.7,0.7,0.9
		c0.6,0.3,1.4,0.5,2.6,0.4L51.7,133.3z"/>
	<path class="st2" d="M62.2,137.7l-0.3,2.7l-2.8-1l-1.1,3.4c-0.2,0.5-0.2,0.9,0,1.3c0.1,0.4,0.4,0.6,0.8,0.8
		c0.4,0.1,0.9,0.2,1.4,0.1l0.2,2.6c-0.3,0.1-0.7,0.2-1.3,0.2c-0.5,0-1-0.1-1.4-0.2c-1.3-0.4-2.2-1.1-2.8-2.1c-0.6-0.9-0.7-2-0.3-3.2
		l1.3-3.8l-1.5-0.5l0.9-2.5l1.5,0.5l0.9-2.6l3.4,0.6l-1,3.1L62.2,137.7z"/>
	<path class="st2" d="M73,147.9c-0.6,0.7-1.4,1.3-2.4,1.6c-0.9,0.3-2,0.4-3.1,0.2c-1.1-0.2-2.1-0.5-2.9-1.1
		c-0.8-0.6-1.4-1.3-1.7-2.2c-0.4-0.9-0.4-1.9-0.3-3.1c0.2-1.1,0.6-2.1,1.2-2.8c0.6-0.8,1.4-1.3,2.4-1.6c0.9-0.3,2-0.4,3.1-0.2
		c1.1,0.2,2.1,0.5,2.9,1.1c0.8,0.6,1.4,1.3,1.7,2.2c0.4,0.9,0.4,2,0.3,3.1C74,146.2,73.6,147.1,73,147.9z M69.7,146.4
		c0.5-0.4,0.8-1,0.9-1.9c0.1-0.8,0-1.5-0.3-2.1c-0.3-0.6-0.8-0.9-1.5-1c-0.7-0.1-1.3,0.1-1.8,0.5c-0.5,0.4-0.8,1.1-0.9,1.9
		c-0.1,0.8,0,1.5,0.3,2.1c0.3,0.6,0.9,0.9,1.5,1C68.6,147,69.2,146.8,69.7,146.4z"/>
	<path class="st2" d="M81.3,149.3l0.6-2.8c0.5,0.2,1.1,0.3,1.8,0.5c0.7,0.1,1.3,0.1,1.9,0.1c0.7-0.1,1.3-0.3,1.6-0.6
		c0.4-0.3,0.5-0.7,0.5-1.1c0-0.3-0.2-0.5-0.5-0.7c-0.3-0.2-0.9-0.4-1.6-0.7c-0.2-0.1-0.4-0.1-0.7-0.3c-1.1-0.5-1.9-0.9-2.5-1.2
		c-0.6-0.3-1.2-0.7-1.7-1.3c-0.5-0.5-0.8-1.2-0.9-1.9c-0.1-0.8,0-1.5,0.4-2.2c0.3-0.7,0.9-1.2,1.6-1.7c0.8-0.5,1.7-0.8,2.7-0.9
		c0.7-0.1,1.5-0.1,2.3,0c0.8,0.1,1.5,0.3,2.1,0.6l-0.7,2.6c-0.7-0.2-1.3-0.3-1.8-0.4c-0.5-0.1-1-0.1-1.5,0c-0.5,0.1-1,0.2-1.3,0.5
		c-0.3,0.3-0.4,0.6-0.4,1c0,0.3,0.2,0.6,0.5,0.8c0.3,0.2,0.8,0.4,1.5,0.7c0.2,0.1,0.5,0.2,0.8,0.3c1.1,0.5,2,0.9,2.6,1.2
		c0.6,0.3,1.1,0.7,1.6,1.3c0.5,0.5,0.8,1.2,0.9,1.9c0.1,0.8,0,1.6-0.4,2.3c-0.4,0.7-1,1.3-1.8,1.8c-0.8,0.5-1.8,0.8-3,0.9
		c-0.7,0.1-1.5,0.1-2.5-0.1C82.6,149.8,81.9,149.6,81.3,149.3z"/>
	<path class="st2" d="M102.8,138.2l2.2,6.4l-3.2,1.1l-2.2-6.1c-0.2-0.5-0.4-0.8-0.7-1c-0.3-0.2-0.7-0.2-1.1-0.1
		c-0.6,0.2-1.3,0.8-2.1,1.7l2.4,6.8l-3.2,1.1l-5.1-14.4l3.1-1.4l1.8,5.2c0.4-0.5,0.9-0.9,1.4-1.3c0.5-0.4,1-0.7,1.5-0.8
		C100.2,134.6,101.8,135.6,102.8,138.2z"/>
	<path class="st2" d="M116,135.5c0,1-0.2,1.9-0.8,2.7c-0.5,0.8-1.3,1.6-2.2,2.2c-1,0.6-2,1-2.9,1.1c-1,0.1-1.9-0.1-2.7-0.5
		c-0.9-0.5-1.6-1.2-2.2-2.2c-0.6-1-0.9-1.9-0.9-2.9c0-1,0.2-1.9,0.7-2.8s1.3-1.6,2.2-2.2c1-0.6,2-1,3-1c1-0.1,1.9,0.1,2.8,0.6
		c0.9,0.5,1.6,1.2,2.2,2.2C115.7,133.5,116,134.5,116,135.5z M112.5,136.5c0.1-0.6-0.1-1.3-0.5-2c-0.4-0.7-1-1.2-1.6-1.4
		c-0.6-0.2-1.2-0.2-1.8,0.2c-0.6,0.4-1,0.9-1.1,1.5s0.1,1.3,0.5,2c0.4,0.7,1,1.2,1.6,1.4c0.6,0.2,1.2,0.1,1.8-0.2
		C112.1,137.6,112.4,137.1,112.5,136.5z"/>
	<path class="st2" d="M120.4,121.9c1.4,0,2.7,0.7,3.9,2c1.2,1.3,1.8,2.6,1.8,4c0,1.4-0.7,2.7-1.9,3.9c-0.4,0.4-0.9,0.7-1.4,0.9
		l3.2,3.4l-2.3,2.5L113,127.4l1.3-1.2l0.9,0.1c0.2-1.1,0.7-2,1.4-2.7C117.7,122.4,119,121.8,120.4,121.9z M122.7,128.2
		c-0.1-0.7-0.4-1.3-1-1.9c-0.6-0.6-1.2-1-1.9-1.1c-0.6-0.1-1.2,0.1-1.7,0.6c-0.3,0.3-0.6,0.8-0.7,1.3l3.3,3.4c0.6-0.1,1-0.4,1.4-0.7
		C122.6,129.4,122.8,128.9,122.7,128.2z"/>
</g>
<g>
	<path class="st2" d="M96,89c-1.7,1.3-6.8,3.8-8.1,4.4c-0.2,0.1-0.3,0.3-0.3,0.5v33.6c0,0.3-0.2,0.6-0.6,0.6H75v0H62.9
		c-0.3,0-0.6-0.2-0.6-0.6V93.9c0-0.2-0.1-0.4-0.3-0.5c-1.3-0.6-6.4-3.2-8.1-4.4c-5.4-4.1-6.5-12.1-3.8-18.3c1.8-4.3,6-12.7,8-16.9
		c0.6-1.3,2-2.2,3.4-2.2h1.3c0.3,0,0.6,0.2,0.6,0.6v13.6c0,2,1.4,3.7,3.4,4.1c1.7,0.3,6.4,1.1,7.7,1.4c0.3,0,0.5,0,0.8,0
		c1.4-0.2,6-1.1,7.7-1.4c2-0.4,3.4-2.1,3.4-4.1V52.6c0-0.6,0.5-1,1-1c0.3,0,0.7,0,0.9,0c1.5,0,2.8,0.8,3.4,2.2
		c2,4.2,6.2,12.6,8,16.9C102.5,76.9,101.4,84.9,96,89z"/>
	<path class="st2" d="M91.1,37.6c0-0.4-0.2-0.8-0.6-1c0,0-0.1-0.1-0.1-0.1l0-7.4c0.1,0,0.1-0.1,0.1-0.2c0-0.1-0.1-0.2-0.2-0.2
		L75,23.2c-0.2-0.1-0.4-0.1-0.6,0l-15.4,5.4c-0.1,0-0.2,0.1-0.2,0.2c0,0.1,0.1,0.2,0.1,0.2L74.3,35c0.3,0.1,0.5,0.1,0.8,0l14-5.5
		c0.1,0,0.2,0,0.2,0.2l0,6.7c0,0.1,0,0.1-0.1,0.1c-0.4,0.2-0.6,0.6-0.6,1c0,0.5,0.3,0.9,0.7,1.1c-0.4,0.9-0.7,2.6-0.7,3.1
		c0,0.7,0.5,1.2,1.2,1.2c0.7,0,1.2-0.5,1.2-1.2c0-0.5-0.3-2.3-0.7-3.1C90.8,38.5,91.1,38.1,91.1,37.6L91.1,37.6z M91.1,37.6"/>
	<path class="st2" d="M75.1,37.5c-0.2,0.1-0.5,0.1-0.7,0l-10-3.9c-0.3-0.1-0.5,0.1-0.5,0.4c0,1.6,0,3.2,0,3.5c0,0.8,0.3,1.6,0.9,2.3
		c0.7,0.8,1.7,1.6,3,2.2c1.9,0.9,4.3,1.4,7,1.5c0,0,0,0,0,0c1.7,0,3.4-0.3,4.8-0.7c0.7-0.2,1.4-0.4,2-0.7c2.5-1.1,4.1-2.7,4-4.5
		c0-0.3,0-1.9,0-3.5c0-0.3-0.3-0.5-0.5-0.4L75.1,37.5z"/>
</g>
<g class="st1">
	<path class="st3" d="M17.4,46.4l2-3.2c0.5,0.3,0.9,0.6,1.2,0.9c0.3,0.3,0.5,0.7,0.5,1.1c0.1,0.5-0.1,1-0.4,1.6L18.2,51
		c-0.3,0.5-0.7,0.9-1.2,1c-0.5,0.1-1,0-1.5-0.3L4.4,45l-0.1-0.2L5,43.7c0.7-1.2,1.7-1.4,2.9-0.6l8.5,5.2
		C16.7,47.7,17.1,47.1,17.4,46.4z"/>
	<path class="st3" d="M24.8,34.6l-3.7,4.3c0.5,0.4,1,0.6,1.5,0.6c0.5,0,0.9-0.3,1.4-0.8c0.2-0.3,0.4-0.6,0.7-1
		c0.2-0.4,0.4-0.9,0.6-1.5c0.7,0,1.4,0.2,2.1,0.6c-0.1,1.4-0.7,2.8-1.8,4.1c-0.6,0.7-1.2,1.2-1.8,1.5c-0.6,0.3-1.3,0.4-1.9,0.4
		c-0.6,0-1.3-0.2-1.9-0.6c-0.6-0.3-1.3-0.8-1.9-1.3c-0.6-0.5-1.1-1.1-1.5-1.7c-0.4-0.6-0.7-1.2-0.8-1.8c-0.1-0.6-0.1-1.3,0.1-1.9
		c0.2-0.7,0.5-1.3,1.1-1.9c0.4-0.5,0.9-0.9,1.5-1.2c0.5-0.3,1.1-0.4,1.7-0.5c0.6,0,1.1,0,1.7,0.3c0.6,0.2,1.1,0.5,1.6,1
		C24,33.5,24.5,34.1,24.8,34.6z M19.4,37.4l1.8-2.2L21,35.1c-0.4-0.3-0.8-0.5-1.2-0.6S19,34.6,18.7,35c-0.3,0.4-0.4,0.7-0.3,1.1
		C18.5,36.5,18.8,36.9,19.4,37.4z"/>
	<path class="st3" d="M35.2,29.1c0.1,0.3,0.3,0.6,0.3,1c0.1,0.4,0.1,0.7,0,1c-0.8,0.6-1.6,0.9-2.5,0.7c-0.1,1.3-0.6,2.3-1.5,3
		c-0.4,0.4-0.9,0.6-1.3,0.8c-0.4,0.1-0.9,0.2-1.3,0.1c-0.4,0-0.8-0.2-1.2-0.4c-0.4-0.2-0.7-0.5-1-0.8c-0.4-0.5-0.7-1-0.8-1.5
		c-0.1-0.5-0.2-1-0.1-1.5c0.1-0.5,0.3-1,0.6-1.4c0.3-0.5,0.7-0.9,1.1-1.3c0.3-0.2,0.5-0.4,0.7-0.6c0.2-0.2,0.4-0.3,0.5-0.4l-0.3-0.3
		c-0.6-0.7-1.3-0.7-2-0.1c-0.5,0.4-1.1,1.3-1.9,2.6c-0.7-0.1-1.4-0.5-2.2-1.2c0.2-0.3,0.4-0.7,0.6-1c0.2-0.4,0.5-0.7,0.8-1.1
		c0.3-0.4,0.6-0.7,0.9-1c0.3-0.3,0.6-0.6,0.8-0.8c0.4-0.3,0.8-0.6,1.2-0.8c0.5-0.2,0.9-0.3,1.4-0.3c0.5,0,0.9,0.1,1.4,0.3
		c0.5,0.2,0.9,0.6,1.3,1.1l2.9,3.3C34.2,28.9,34.7,29.1,35.2,29.1z M29.1,32.2c0.4,0.5,1,0.5,1.6,0c0.3-0.3,0.5-0.7,0.6-1.4
		l-1.1-1.3c-0.2,0.2-0.4,0.3-0.6,0.5c-0.2,0.1-0.3,0.2-0.3,0.3C28.6,30.8,28.5,31.5,29.1,32.2z"/>
	<path class="st3" d="M31.6,22.3c-0.1-0.3-0.2-0.6-0.2-1c0-0.4,0-0.7,0.1-1c1.2-0.6,2.3-0.6,3.4,0.1c-0.3-1.4,0.1-2.4,1.2-3.1
		c0.3-0.2,0.7-0.4,1.3-0.6c0.2,0.4,0.5,0.9,0.7,1.5c0.2,0.6,0.3,1.2,0.3,1.7c-0.3,0.1-0.6,0.2-1,0.4c-0.6,0.4-0.9,1-0.9,1.9l3.7,5.7
		c-0.4,0.3-0.8,0.7-1.3,1c-0.5,0.4-1,0.6-1.5,0.8l-3.8-5.9C32.9,22.8,32.3,22.3,31.6,22.3z"/>
	<path class="st3" d="M49.4,14.9l1.9,4c0.4,0.9,0.9,1.4,1.4,1.7c-0.3,0.7-0.8,1.2-1.5,1.5c-0.7,0.3-1.2,0.4-1.6,0.2
		c-0.4-0.2-0.7-0.6-1-1.3l-1.9-4.2c-0.2-0.4-0.4-0.7-0.6-0.9s-0.5-0.2-0.8,0c-0.2,0.1-0.4,0.2-0.6,0.5c-0.2,0.2-0.4,0.5-0.5,0.9
		l3,6.6c-0.2,0.1-0.4,0.3-0.7,0.4c-0.3,0.1-0.5,0.3-0.8,0.4c-0.3,0.1-0.6,0.2-0.8,0.3s-0.5,0.2-0.8,0.2l-4.6-9.8l0.1-0.2l1.2-0.5
		c0.8-0.4,1.5-0.2,2.2,0.4c0.5-1.2,1.3-2.1,2.2-2.5c0.9-0.4,1.8-0.4,2.5,0C48.3,13.1,48.9,13.8,49.4,14.9z"/>
	<path class="st3" d="M61,14.4l-5.4,1.5c0.2,0.6,0.5,1.1,0.9,1.3c0.4,0.3,0.9,0.3,1.6,0.1c0.3-0.1,0.7-0.2,1.1-0.5
		c0.4-0.2,0.9-0.5,1.4-0.9c0.6,0.3,1.1,0.9,1.4,1.7c-0.9,1.1-2.1,1.9-3.8,2.3c-0.9,0.2-1.7,0.3-2.3,0.2c-0.7-0.1-1.3-0.4-1.8-0.8
		c-0.5-0.4-0.9-0.9-1.3-1.6c-0.3-0.6-0.6-1.4-0.9-2.2c-0.2-0.8-0.3-1.5-0.3-2.2c0-0.7,0.1-1.4,0.4-2c0.2-0.6,0.6-1.1,1.1-1.6
		c0.5-0.4,1.2-0.8,2-1c0.7-0.2,1.3-0.2,1.9-0.2s1.1,0.3,1.6,0.5c0.5,0.3,0.9,0.7,1.3,1.2c0.4,0.5,0.6,1.1,0.8,1.7
		C60.9,13,61,13.7,61,14.4z M54.9,13.6l2.7-0.8l-0.1-0.2c-0.1-0.5-0.4-0.9-0.7-1.2c-0.3-0.3-0.7-0.3-1.2-0.2
		c-0.4,0.1-0.7,0.4-0.9,0.7C54.8,12.4,54.8,12.9,54.9,13.6z"/>
	<path class="st3" d="M61.9,9.2c0-0.3,0.1-0.6,0.3-1c0.2-0.4,0.3-0.7,0.5-0.8c1.3-0.1,2.3,0.4,3,1.6c0.4-1.4,1.2-2.1,2.4-2.3
		c0.4-0.1,0.9-0.1,1.4,0c0.1,0.4,0.1,1,0,1.6c-0.1,0.6-0.2,1.2-0.4,1.6c-0.3-0.1-0.6-0.1-1.1-0.1c-0.7,0.1-1.3,0.5-1.6,1.3l0.9,6.7
		c-0.5,0.2-1,0.3-1.7,0.4c-0.6,0.1-1.2,0.1-1.7,0.1l-1-7C62.9,10.2,62.5,9.5,61.9,9.2z"/>
	<path class="st3" d="M75.1,0.3c0.2,0.5,0.3,1,0.3,1.7c0,1.1-0.3,2-0.9,2.9c-0.6,0.9-1.5,1.5-2.7,1.8c-0.2-0.1-0.4-0.3-0.6-0.5
		s-0.2-0.5-0.2-0.8l0-0.2c0.2-0.1,0.4-0.2,0.6-0.3c0.2-0.1,0.4-0.3,0.6-0.4c0.2-0.2,0.3-0.3,0.4-0.5c0.1-0.2,0.2-0.4,0.2-0.6
		c-0.4,0-0.7-0.1-1-0.3c-0.1-0.3-0.2-0.5-0.2-0.7c0-0.2,0-0.4-0.1-0.6c0-0.5,0-0.9,0.2-1.3c0.3-0.2,0.6-0.3,0.8-0.4
		C72.9,0,73.1,0,73.5,0C74.1,0,74.7,0.1,75.1,0.3z"/>
	<path class="st3" d="M75,16.4c0-0.4,0.2-0.8,0.4-1.2c0.2-0.4,0.4-0.8,0.7-1c1.1,0.7,2.1,1,3,1.1c0.4,0,0.7,0,0.9-0.2
		c0.2-0.1,0.3-0.3,0.4-0.5c0-0.4-0.3-0.8-1-1l-1.2-0.5c-1.8-0.8-2.6-1.9-2.6-3.4c0.1-1.1,0.5-2,1.3-2.6c0.8-0.6,1.8-0.9,3.1-0.8
		c0.6,0,1.3,0.2,2.1,0.4c0.8,0.2,1.4,0.5,1.9,0.7c0,0.4-0.1,0.8-0.3,1.3c-0.2,0.5-0.5,0.8-0.7,1c-1.2-0.6-2.2-0.9-3-1
		c-0.3,0-0.5,0-0.7,0.2C79.1,8.9,79,9.1,79,9.3c0,0.3,0.2,0.6,0.8,0.9l1.3,0.5c1.9,0.8,2.8,2,2.7,3.6c-0.1,1.1-0.5,1.9-1.3,2.5
		c-0.8,0.6-2,0.9-3.5,0.8C77.5,17.6,76.2,17.1,75,16.4z"/>
	<path class="st3" d="M95.9,15.4l-1.7-0.5L93,19.4c-0.5,0-1-0.2-1.7-0.3c-0.7-0.2-1.2-0.4-1.6-0.6l4-14.2l0.2-0.1
		c1.2,0.3,2.2,0.6,3,0.8c0.8,0.2,1.4,0.4,1.8,0.5c0.8,0.2,1.4,0.5,2,0.9c0.6,0.4,1,0.9,1.4,1.4c0.3,0.5,0.5,1.2,0.6,1.9
		c0.1,0.7,0,1.4-0.2,2.2c-0.2,0.8-0.6,1.5-1,2c-0.4,0.5-0.9,1-1.5,1.3c-0.6,0.3-1.2,0.5-1.9,0.5C97.4,15.7,96.7,15.6,95.9,15.4z
		 M96.3,7.6L95,12.4c0.4,0.1,0.7,0.2,0.9,0.2c0.2,0.1,0.4,0.1,0.5,0.1c0.4,0.1,0.7,0.1,1,0.1c0.3-0.1,0.5-0.2,0.8-0.3
		c0.2-0.2,0.4-0.4,0.6-0.7c0.2-0.3,0.3-0.6,0.4-0.9c0.1-0.3,0.1-0.6,0.2-0.9c0-0.3,0-0.6-0.1-0.9c-0.1-0.3-0.2-0.5-0.4-0.7
		c-0.2-0.2-0.5-0.3-0.8-0.4c-0.3-0.1-0.6-0.2-0.9-0.2C96.8,7.7,96.5,7.6,96.3,7.6z"/>
	<path class="st3" d="M110.2,21.6l-5.1-2.4c-0.2,0.6-0.3,1.1-0.2,1.6c0.1,0.5,0.5,0.8,1.1,1.1c0.3,0.1,0.7,0.3,1.1,0.4
		c0.5,0.1,1,0.2,1.6,0.2c0.2,0.6,0.2,1.4-0.1,2.2c-1.4,0.2-2.9,0-4.4-0.7c-0.8-0.4-1.5-0.8-1.9-1.4c-0.4-0.5-0.7-1.1-0.8-1.7
		c-0.1-0.6-0.1-1.3,0.1-2c0.2-0.7,0.4-1.4,0.8-2.2c0.3-0.7,0.8-1.4,1.2-1.9c0.5-0.5,1-1,1.6-1.2c0.6-0.3,1.2-0.4,1.9-0.4
		c0.7,0,1.4,0.2,2.1,0.5c0.6,0.3,1.1,0.7,1.5,1.1c0.4,0.4,0.7,0.9,0.9,1.5c0.2,0.5,0.2,1.1,0.2,1.7s-0.2,1.2-0.5,1.8
		C111,20.5,110.6,21.1,110.2,21.6z M106.1,17l2.6,1.2l0.1-0.2c0.2-0.5,0.3-0.9,0.2-1.3c-0.1-0.4-0.3-0.7-0.7-0.9
		c-0.4-0.2-0.8-0.2-1.1,0C106.8,16,106.4,16.4,106.1,17z"/>
	<path class="st3" d="M114.3,18.2c0.2-0.2,0.5-0.4,0.9-0.6c0.4-0.2,0.7-0.3,0.9-0.3c1.1,0.8,1.5,1.9,1.2,3.2
		c1.2-0.8,2.3-0.8,3.3-0.2c0.3,0.2,0.7,0.5,1.1,0.9c-0.2,0.4-0.6,0.8-1.1,1.2c-0.5,0.4-0.9,0.8-1.4,1c-0.2-0.2-0.4-0.5-0.8-0.8
		c-0.6-0.4-1.3-0.4-2.1,0l-3.7,5.7c-0.4-0.2-0.9-0.5-1.5-0.8s-1-0.7-1.4-1l3.8-5.9C114.3,19.7,114.5,18.9,114.3,18.2z"/>
	<path class="st3" d="M125.2,29.8c0.7-0.7,0.8-1.3,0.3-1.7c-0.2-0.2-0.4-0.3-0.7-0.3s-0.6-0.1-0.9-0.1l-5,5.2
		c-0.2-0.1-0.4-0.3-0.6-0.5c-0.2-0.2-0.4-0.4-0.7-0.6c-0.2-0.2-0.4-0.4-0.6-0.6c-0.2-0.2-0.4-0.4-0.5-0.6l7.5-7.8l0.2,0l0.9,0.9
		c0.7,0.6,0.8,1.4,0.4,2.3c1.4,0,2.4,0.4,3.1,1.1c0.8,0.8,1.1,1.8,0.8,2.8c1.5,0.1,2.6,0.4,3.4,1.1c0.7,0.7,1.1,1.5,1,2.3
		c-0.1,0.8-0.5,1.6-1.2,2.3l-3.4,3.5c-0.7,0.7-1,1.3-1.1,1.9c-0.7,0-1.4-0.3-1.9-0.8c-0.5-0.5-0.8-1-0.8-1.4c0-0.4,0.3-0.9,0.8-1.4
		l3.2-3.3c0.7-0.7,0.7-1.3,0.3-1.7c-0.3-0.3-0.8-0.4-1.5-0.4l-5,5.2c-0.2-0.1-0.4-0.3-0.6-0.5c-0.2-0.2-0.4-0.4-0.7-0.6
		c-0.2-0.2-0.4-0.4-0.6-0.6c-0.2-0.2-0.4-0.4-0.5-0.6L125.2,29.8z"/>
	<path class="st3" d="M137.1,40.6l-6.7,5c-0.2-0.2-0.4-0.4-0.6-0.6c-0.2-0.2-0.4-0.5-0.6-0.7c-0.2-0.2-0.4-0.5-0.5-0.7
		c-0.2-0.3-0.3-0.5-0.4-0.7l5.8-4.3c0.7-0.5,0.8-1,0.4-1.6l-0.2-0.3c0.2-0.2,0.5-0.5,0.8-0.8c0.4-0.3,0.7-0.5,1.1-0.6
		c0.2,0.3,0.5,0.5,0.7,0.8c0.2,0.2,0.4,0.5,0.5,0.7l0.3,0.4c0.4,0.6,0.6,1.2,0.5,1.8C138.1,39.6,137.8,40.1,137.1,40.6z M140.4,33.4
		c0.4,0.2,0.9,0.6,1.3,1.1c0.4,0.5,0.6,1,0.7,1.5c-0.2,0.4-0.5,0.7-0.9,1c-0.4,0.3-0.7,0.4-1.2,0.5c-0.4-0.2-0.8-0.6-1.2-1.1
		c-0.4-0.5-0.6-1-0.7-1.4c0.2-0.4,0.5-0.7,0.9-1C139.5,33.7,139.9,33.5,140.4,33.4z"/>
	<path class="st3" d="M144.2,47.2c-0.3,0.3-0.6,0.5-1,0.7c-0.3,0.2-0.7,0.4-1.1,0.5l-1.3-2.2l-4.3,2.6c-0.6,0.3-0.7,0.8-0.4,1.3
		l0.6,1c-0.4,0.4-0.7,0.8-1.1,1c-0.4,0.2-0.7,0.4-0.9,0.4c-0.7-0.8-1.2-1.7-1.7-2.4c-0.9-1.6-0.5-2.9,1.2-3.9l4.8-2.9l-0.9-1.4
		c0.3-0.3,0.6-0.5,0.9-0.7c0.4-0.2,0.7-0.4,1.1-0.5l0.8,1.5l1.1-0.6c0.6-0.4,1.2-0.5,1.6-0.4c0.4,0.1,0.8,0.4,1.1,1l0.7,1.1
		l-0.1,0.2l-2.7,1.6L144.2,47.2z"/>
</g>
<g class="st1">
	<path class="st3" d="M34.4,131.4c-0.3-0.2-0.5-0.4-0.7-0.6l-2.7,1.8c-0.3-0.2-0.7-0.4-1.2-0.8c-0.5-0.4-0.9-0.9-1.2-1.3l0-0.2
		l13-8.2c0.5,0.3,1,0.7,1.6,1.2c0.7,0.5,1.2,1,1.5,1.4L39.1,139c-0.6-0.1-1.1-0.4-1.6-0.8c-0.6-0.5-0.9-0.9-1-1.3
		c-0.1-0.4,0-0.9,0.4-1.7l0.6-1.4c-0.2-0.1-0.4-0.3-0.7-0.5L34.4,131.4z M36.1,129.2l0.7,0.5l1.2,1c0.1,0,0.2,0.1,0.3,0.3
		c0.1,0.1,0.2,0.2,0.3,0.3l0.6-1.3c0.5-1.2,1.2-2.6,1.9-4.2l-0.1-0.1c-0.5,0.4-1.6,1.3-3.5,2.5L36.1,129.2z"/>
	<path class="st3" d="M43,137.2l2.1-4c0.4-0.8,0.6-1.6,0.5-2.2c0.7-0.2,1.4-0.1,2.1,0.3c0.7,0.4,1.1,0.7,1.1,1.2
		c0.1,0.4,0,1-0.4,1.6l-2.1,4.1c-0.2,0.5-0.4,0.8-0.4,1.1c0,0.3,0.2,0.5,0.7,0.7c0.4,0.2,1,0.2,1.6,0l3.3-6.4c0.5,0.1,1,0.4,1.5,0.7
		c0.6,0.3,1.1,0.6,1.5,0.9L51,142c-0.4,0.7-0.4,1.3-0.2,1.7c-0.2,0.2-0.5,0.4-0.8,0.6c-0.3,0.2-0.6,0.3-0.9,0.4
		c-1-0.6-1.6-1.4-1.6-2.5c-1.5,0.4-2.7,0.3-3.6-0.1c-0.9-0.5-1.4-1.1-1.6-2C42.3,139.2,42.5,138.2,43,137.2z"/>
	<path class="st3" d="M62.5,137.7c0,0.4-0.1,0.8-0.2,1.2c-0.1,0.4-0.3,0.7-0.5,1.1l-2.5-0.8l-1.5,4.8c-0.2,0.6,0,1.1,0.6,1.3
		l1.2,0.4c0,0.6,0,1-0.2,1.5c-0.1,0.4-0.3,0.7-0.4,0.9c-1.1-0.2-2-0.4-2.9-0.7c-1.7-0.6-2.3-1.8-1.7-3.7l1.7-5.3l-1.6-0.5
		c0-0.4,0.1-0.8,0.2-1.2c0.1-0.4,0.3-0.8,0.5-1.1l1.6,0.6l0.4-1.2c0.2-0.7,0.5-1.2,0.9-1.4c0.4-0.2,0.9-0.2,1.5,0l1.3,0.4l0.1,0.2
		l-1,3L62.5,137.7z"/>
	<path class="st3" d="M71,140.1c0.9,1.2,1.2,2.7,0.9,4.7c-0.1,0.9-0.4,1.6-0.7,2.3c-0.3,0.7-0.7,1.2-1.2,1.7
		c-0.5,0.4-1.1,0.7-1.7,0.9c-0.7,0.2-1.4,0.2-2.2,0.1c-0.8-0.1-1.5-0.4-2.1-0.7c-0.6-0.4-1-0.8-1.4-1.4c-0.3-0.6-0.6-1.2-0.7-1.9
		c-0.1-0.7-0.1-1.5,0-2.4c0.1-0.9,0.4-1.6,0.7-2.3c0.3-0.7,0.7-1.2,1.2-1.7c0.5-0.4,1.1-0.7,1.7-0.9c0.7-0.2,1.4-0.2,2.2-0.1
		C69.2,138.5,70.3,139.1,71,140.1z M67.4,140.8c-0.3,0-0.6,0-0.8,0.1c-0.2,0.1-0.4,0.3-0.6,0.5c-0.2,0.2-0.3,0.5-0.4,0.9
		c-0.1,0.3-0.2,0.7-0.2,1.1c-0.1,0.6-0.2,1.1-0.2,1.6c0,0.4,0,0.8,0.1,1.1c0.1,0.3,0.2,0.6,0.4,0.7c0.2,0.2,0.4,0.3,0.7,0.3
		c0.6,0.1,1.1-0.1,1.4-0.6c0.3-0.5,0.5-1.3,0.7-2.3c0.2-1,0.2-1.8,0.1-2.4C68.4,141.2,68,140.9,67.4,140.8z"/>
	<path class="st3" d="M78.4,149c0-0.5,0.1-1,0.3-1.5c0.2-0.5,0.4-0.9,0.8-1.3c1.7,0.7,3.2,1,4.6,0.9c0.6-0.1,1-0.3,1.3-0.6
		c0.2-0.3,0.3-0.7,0.3-1.1c-0.1-0.7-0.6-1.2-1.6-1.4l-2.7-0.8c-1-0.3-1.9-0.8-2.5-1.3c-0.6-0.6-1-1.3-1.1-2.3
		c-0.1-0.7,0-1.3,0.2-1.9c0.2-0.6,0.5-1.1,0.9-1.6c0.4-0.5,1-0.8,1.6-1.2c0.6-0.3,1.4-0.5,2.2-0.6c1.6-0.2,3.3,0,5,0.6
		c0.1,1.1-0.2,2-0.8,2.7c-1.6-0.5-2.9-0.7-4-0.6c-0.6,0.1-1,0.3-1.2,0.5c-0.3,0.3-0.4,0.6-0.3,0.9c0.1,0.6,0.5,1,1.4,1.2l2.7,0.8
		c1.2,0.3,2,0.8,2.7,1.5c0.6,0.7,1,1.5,1.1,2.4c0.1,0.7,0,1.3-0.1,1.9c-0.2,0.6-0.5,1.1-0.9,1.6c-0.4,0.5-1,0.9-1.7,1.2
		c-0.7,0.3-1.5,0.5-2.5,0.7C82.1,150.2,80.3,149.8,78.4,149z"/>
	<path class="st3" d="M99.4,138.3l1.4,4.2c0.3,0.9,0.7,1.5,1.2,1.9c-0.4,0.6-0.9,1.1-1.7,1.3c-0.7,0.2-1.3,0.2-1.6,0
		s-0.7-0.7-0.9-1.4l-1.5-4.4c-0.2-0.5-0.3-0.8-0.5-1c-0.2-0.2-0.5-0.2-0.8-0.1c-0.2,0.1-0.4,0.2-0.6,0.4c-0.2,0.2-0.4,0.5-0.6,0.8
		L96,147c-0.4,0.2-0.9,0.5-1.5,0.6c-0.6,0.2-1.1,0.3-1.6,0.4l-5-15l0.1-0.2l1.2-0.4c0.7-0.2,1.2-0.2,1.5,0c0.4,0.2,0.6,0.7,0.9,1.4
		l1.3,3.9c0.7-1.1,1.5-1.8,2.4-2.1s1.7-0.2,2.5,0.3C98.4,136.4,99,137.2,99.4,138.3z"/>
	<path class="st3" d="M107,131.1c1.4,0.4,2.6,1.4,3.6,3.1c0.4,0.8,0.7,1.5,0.9,2.2c0.2,0.7,0.2,1.4,0,2.1c-0.1,0.6-0.4,1.2-0.8,1.8
		c-0.4,0.5-1,1-1.7,1.4c-0.7,0.4-1.4,0.6-2.1,0.7c-0.7,0.1-1.3,0-1.9-0.2c-0.6-0.2-1.2-0.6-1.7-1.1c-0.5-0.5-1-1.1-1.4-1.9
		c-0.4-0.8-0.7-1.5-0.9-2.2c-0.2-0.7-0.2-1.4-0.1-2.1c0.1-0.6,0.4-1.2,0.8-1.8c0.4-0.5,1-1,1.7-1.4C104.6,131,105.8,130.8,107,131.1
		z M104.6,133.9c-0.3,0.2-0.5,0.4-0.6,0.6c-0.1,0.2-0.1,0.5-0.1,0.8c0,0.3,0.1,0.6,0.2,0.9c0.1,0.3,0.3,0.6,0.5,1
		c0.3,0.5,0.6,1,0.8,1.3c0.3,0.4,0.5,0.7,0.7,0.9c0.2,0.2,0.5,0.3,0.7,0.3c0.2,0,0.5,0,0.8-0.2c0.6-0.3,0.8-0.8,0.7-1.4
		c-0.1-0.6-0.4-1.3-0.9-2.2c-0.5-0.9-1-1.5-1.4-1.9C105.6,133.7,105.1,133.6,104.6,133.9z"/>
	<path class="st3" d="M120,133.8c-0.5,0.4-1.1,0.7-1.8,0.9l1.9,2.2c0.5,0.6,0.7,1.1,0.7,1.5c0,0.4-0.3,0.8-0.8,1.3l-1,0.8l-0.2,0
		l-10-11.7l0-0.2l0.7-0.6c0.6-0.5,1.3-0.7,2.1-0.4c0.1-1.2,0.6-2.1,1.5-2.9c0.5-0.4,1-0.6,1.5-0.7c0.5-0.1,1.1-0.1,1.6,0.1
		c0.6,0.2,1.1,0.5,1.7,0.9c0.6,0.4,1.2,1,1.7,1.6c0.6,0.7,1,1.3,1.3,2c0.3,0.7,0.4,1.3,0.5,2c0,0.6-0.1,1.2-0.3,1.8
		C120.8,132.9,120.4,133.4,120,133.8z M114,127.5c-0.5,0.4-0.7,1-0.6,1.7l3.1,3.6c0.6-0.1,1.1-0.3,1.4-0.5c0.7-0.6,0.4-1.8-1-3.5
		C115.6,127.3,114.7,126.9,114,127.5z"/>
</g>
</svg>
