<?xml version="1.0" encoding="utf-8"?>
<!-- Generator: Adobe Illustrator 21.0.0, SVG Export Plug-In . SVG Version: 6.00 Build 0)  -->
<svg version="1.1"
	 id="svg2" inkscape:output_extension="org.inkscape.output.svg.inkscape" inkscape:version="0.47 r22583" sodipodi:docname="yelp.svg" sodipodi:version="0.32" xmlns:cc="http://creativecommons.org/ns#" xmlns:dc="http://purl.org/dc/elements/1.1/" xmlns:inkscape="http://www.inkscape.org/namespaces/inkscape" xmlns:rdf="http://www.w3.org/1999/02/22-rdf-syntax-ns#" xmlns:sodipodi="http://sodipodi.sourceforge.net/DTD/sodipodi-0.dtd" xmlns:svg="http://www.w3.org/2000/svg"
	 xmlns="http://www.w3.org/2000/svg" xmlns:xlink="http://www.w3.org/1999/xlink" x="0px" y="0px" viewBox="0 0 100 100"
	 style="enable-background:new 0 0 100 100;" xml:space="preserve">
<style type="text/css">
	.st0{fill:#FF0000;}
	.st1{fill:#FFFFFF;}
</style>
<sodipodi:namedview  bordercolor="#666666" borderopacity="1.0" id="base" inkscape:current-layer="layer1" inkscape:cx="126.52606" inkscape:cy="97.100122" inkscape:document-units="px" inkscape:pageopacity="0.0" inkscape:pageshadow="2" inkscape:window-height="685" inkscape:window-maximized="0" inkscape:window-width="741" inkscape:window-x="1" inkscape:window-y="298" inkscape:zoom="0.7" pagecolor="#ffffff" showgrid="false">
	</sodipodi:namedview>
<g id="layer1" transform="translate(-373.642,-318.344)" inkscape:groupmode="layer" inkscape:label="Layer 1">
	
		<path id="rect1942" inkscape:export-filename="C:\Documents and Settings\Molumen\Desktop\path3511111.png" inkscape:export-xdpi="7.7063322" inkscape:export-ydpi="7.7063322" class="st0" d="
		M458.5,318.3h-69.8c-8.3,0-15.1,6.8-15.1,15.1v69.8c0,8.3,6.8,15.1,15.1,15.1h69.8c8.3,0,15.1-6.8,15.1-15.1v-69.8
		C473.6,325.1,466.9,318.3,458.5,318.3z"/>
	<path id="path4132" sodipodi:nodetypes="ccccc" class="st1" d="M396.1,336.5c6.3-5.6,13.7-9.6,25-7.5v36.3
		c-0.5,1.7-1.9,2.1-3.2,1.2L396.1,336.5z"/>
	<path id="path4134" sodipodi:nodetypes="ccccc" class="st1" d="M441.2,349.7c5.1,3.2,10.7,9.5,12.3,18.8l-24.3,3.9
		c-1.4-0.5-2.5-1.4-2.3-3.5L441.2,349.7L441.2,349.7z"/>
	<path id="path4136" sodipodi:nodetypes="ccccc" class="st1" d="M429.9,380.8c-1.6,0.4-2.4,1.3-2,3.2l12.3,20.8
		c5.5-2.5,10.9-8.4,13.4-17L429.9,380.8L429.9,380.8z"/>
	<path id="path4138" sodipodi:nodetypes="ccccc" class="st1" d="M417.3,383.8c1.6-0.2,3.1-0.2,3.6,1.5l0.7,23.2
		c-8,0.6-14.7-1.5-19.2-7.8L417.3,383.8z"/>
	<path id="path4140" sodipodi:nodetypes="ccccc" class="st1" d="M414.1,373c1.2,1.4,1.8,2.9,0.3,4.6l-22.4,7.8
		c-2.6-7.3-2.4-14.1,0-20.6L414.1,373L414.1,373z"/>
</g>
</svg>
