<?xml version="1.0" ?><svg id="Layer_1" style="enable-background:new -41 -0.982 363.144 452.171;" version="1.1" viewBox="-41 -0.982 363.144 452.171" xml:space="preserve" xmlns="http://www.w3.org/2000/svg" xmlns:xlink="http://www.w3.org/1999/xlink"><g id="_coffee_maker"><polygon points="133.542,43.825 83.52,101.811 93.841,232.719 93.841,278.405 80.254,438.305    24.225,438.305 56.227,288.069 45.331,275.769 45.331,241.065 51.543,225.103 45.331,182.681 -18.743,119.922 31.336,100.054  " style="fill:#FDBB03;"/><path d="M34.33,199.271l4.865,23.821c-6.332,1.366-11.082,6.984-11.082,13.724v43.345   c0,7.032,5.179,12.808,11.921,13.841L8.678,434.063c-0.933,4.163,0.079,8.525,2.746,11.857s6.703,5.268,10.972,5.268h213.672   c4.269,0,8.305-1.936,10.972-5.268s3.679-7.694,2.746-11.857l-31.375-140.14c6.389-1.325,11.192-6.981,11.192-13.762v-43.345   c0-6.174-4.01-11.363-9.549-13.251l15.339-62.89h18.869v115.436c0,5.467,3.168,10.437,8.123,12.743   c1.894,0.882,3.919,1.314,5.93,1.314c3.25,0,6.466-1.126,9.05-3.295l39.769-33.437c3.178-2.673,5.011-6.61,5.011-10.759V130.804   c0-21.638-17.606-39.241-39.244-39.241h-34.712c-0.314-0.542-0.635-1.084-1.021-1.582c-0.017-0.024-0.027-0.048-0.045-0.072   c0,0-0.003-0.003-0.007-0.007c-0.618-0.789-1.337-1.507-2.131-2.159c-0.245-0.202-0.522-0.347-0.777-0.532   c-0.458-0.326-0.891-0.68-1.399-0.958l-91.116-49.775c1.812-3.525,2.934-7.458,2.934-11.686   c0.001-14.212-11.561-25.774-25.77-25.774s-25.77,11.562-25.77,25.774c0,4.4,1.211,8.48,3.164,12.108l-84.12,48.905l-53.854,19.48   c-4.523,1.637-7.893,5.471-8.94,10.165c-1.047,4.691,0.381,9.596,3.782,12.993L34.33,199.271z M129.074,56.153l51.949,28.382   H80.254L129.074,56.153z M201.487,266.105H56.227v-15.231h145.26V266.105z M104.709,222.759l-10.867-110.11h24.847v110.11H104.709z    M139.774,222.759v-110.11h30.273l-12.973,110.11H139.774z M45.331,112.649h27.323l10.865,110.11H67.82L45.331,112.649z    M118.688,294.219v128.855H88.314l14.333-128.855H118.688z M139.774,294.219h16.037l14.337,128.855h-30.374L139.774,294.219   L139.774,294.219z M178.305,222.759l12.974-110.11h26.891l-26.857,110.11H178.305z M128.857,20.104c2.584,0,4.685,2.1,4.685,4.688   c0,2.581-2.1,4.681-4.685,4.681s-4.685-2.1-4.685-4.681C124.173,22.204,126.273,20.104,128.857,20.104z M-1.364,124.201   l18.96-6.857l6.629,32.445L-1.364,124.201z M68.795,294.219h12.638L67.1,423.074H39.946L68.795,294.219z M191.363,423.074   l-14.337-128.855h12.642l28.849,128.855L191.363,423.074L191.363,423.074z M294.029,236.13l-11.655,9.798v-99.31   c0-7.763-6.294-14.057-14.057-14.057H242.25l3.2-13.127c0.782,0.134,1.575,0.244,2.395,0.244H282.9   c6.136,0,11.13,4.99,11.13,11.126V236.13H294.029z" style="fill:#352517;"/></g><g id="Layer_1_1_"/></svg>