<?xml version="1.0" encoding="utf-8"?>
<!-- Generator: Adobe Illustrator 21.0.0, SVG Export Plug-In . SVG Version: 6.00 Build 0)  -->
<svg version="1.1" xmlns="http://www.w3.org/2000/svg" xmlns:xlink="http://www.w3.org/1999/xlink" x="0px" y="0px"
	 viewBox="0 0 16 16" style="enable-background:new 0 0 16 16;" xml:space="preserve">
<style type="text/css">
	.st0{display:none;fill:#0099CC;}
	.st1{fill:#0099CC;}
	.st2{fill:#FFFFFF;}
</style>
<g id="Layer_1">
	<rect id="XMLID_10_" class="st0" width="500" height="500"/>
</g>
<g id="Layer_2">
	<rect class="st1" width="16" height="16"/>
	<g>
		<path id="XMLID_31_" class="st2" d="M15.5,7.9c0,0.8-0.1,1.7-0.4,2.4c-0.1,0.4-0.3,0.8-0.6,1.1c-0.1,0.1-0.1,0.2-0.2,0.3
			c0,0-0.1,0.1-0.1,0.1c0,0-0.1,0-0.1,0c-0.1,0-0.2,0-0.3,0c-0.5,0-0.9,0-1.4,0c0.6-0.4,1-1,1.3-1.7c0.2-0.6,0.3-1.3,0.4-2
			c0-0.7,0-1.3-0.2-2c-0.2-0.6-0.5-1.3-1-1.7c-0.5-0.5-1.2-0.7-2-0.8c-0.1,0-0.2,0-0.3,0c0.2-0.3,0.2-0.8,0-1.1
			c0.6,0,1.2,0.1,1.7,0.3c0.6,0.2,1.1,0.4,1.5,0.8c0.4,0.3,0.7,0.7,1,1.2c0.2,0.4,0.4,0.9,0.5,1.4c0.1,0.5,0.2,1,0.2,1.5
			C15.5,7.7,15.5,7.8,15.5,7.9"/>
		<path id="XMLID_30_" class="st2" d="M15.5,12.8c0,0.2,0,0.4-0.2,0.5c-0.1,0.1-0.3,0.1-0.5,0.1c-0.2,0-0.4,0-0.6,0
			c-0.3,0-0.5,0-0.8,0c-0.3,0-0.6,0-0.9,0c-0.2,0-0.5,0-0.7,0c-0.4,0-0.9,0-1.3,0c-0.5,0-1.1,0-1.6,0c-0.5,0-0.9,0-1.4,0
			c-0.1,0-0.2,0-0.4,0c-0.1,0-0.2,0-0.3-0.1c0,0-0.1-0.1-0.1-0.1c0,0,0,0,0,0c0,0,0,0,0,0c0,0,0,0,0.1,0C7,13,7.1,13,7.2,12.9
			c0.3-0.3,0.6-0.6,0.9-1c0.1-0.1,0.1-0.2,0.2-0.3c0,0.2,0.1,0.3,0.2,0.4c0.1,0.1,0.3,0.1,0.4,0.2c0.2,0,0.4,0,0.5,0h1.1
			c0.1,0,1,0,1.4,0c0.5,0,1,0,1.4,0c0.2,0,0.4,0,0.7,0c0.2,0,0.4,0,0.6-0.1c0.2,0,0.4,0,0.6,0.1c0.1,0.1,0.2,0.3,0.2,0.4
			C15.5,12.7,15.5,12.8,15.5,12.8"/>
		<path id="XMLID_29_" class="st2" d="M10.3,3.1c0,0.3-0.2,0.5-0.5,0.5c-0.3,0-0.6-0.1-0.9-0.1c-0.1,0-0.3,0.1-0.4,0.2
			C8.4,3.9,8.4,4,8.3,4.1c0,0.2-0.1,0.4-0.1,0.6c0,0.4,0,0.9,0,1.3c0,0.3,0,0.5,0,0.8c0,0.4,0,0.8,0,1.2c0,0.6,0,1.2,0,1.8
			c0,0.6-0.1,1.1-0.4,1.6c-0.2,0.5-0.6,0.9-1.1,1.2c-0.5,0.4-1.1,0.6-1.7,0.7c-0.5,0.1-1.1,0.1-1.6,0c-0.4-0.1-0.9-0.2-1.3-0.3
			c-0.4-0.2-0.7-0.4-1-0.7c-0.3-0.3-0.5-0.6-0.7-1c-0.2-0.4-0.2-0.9-0.1-1.4C0.6,9.6,0.7,9.1,1,8.8c0.3-0.3,0.6-0.6,1-0.7
			c0.4-0.1,0.9-0.2,1.3,0c0.4,0.1,0.7,0.4,0.8,0.8c0.1,0.2,0.1,0.5,0,0.7C4.1,9.8,4,10,3.8,10.1c-0.2,0.1-0.4,0.1-0.6,0.1
			C3,10.1,2.8,10,2.7,9.8c-0.1-0.2,0-0.5,0.2-0.6C2.8,9.1,2.7,9.1,2.6,9.1c-0.1,0-0.2,0-0.2,0.1C2.2,9.2,2.1,9.4,2,9.5
			C1.9,9.7,1.8,9.9,1.8,10c0,0.2,0,0.4,0,0.6c0.1,0.4,0.3,0.8,0.5,1c0.3,0.3,0.6,0.5,1,0.6c0.4,0.1,0.8,0.1,1.2,0.1
			c0.4,0,0.9-0.2,1.2-0.4c0.4-0.3,0.7-0.6,0.9-1.1c0.2-0.5,0.3-1,0.3-1.5c0-0.3,0-0.6,0-1V7.8V6.9V6.2C7,6,7,5.8,7,5.7
			c0-0.4,0-0.9,0-1.3c0-0.2,0-0.4-0.1-0.5C6.7,3.7,6.6,3.6,6.4,3.6c-0.2-0.1-0.5,0-0.7,0c-0.1,0-0.3,0-0.4,0C5.2,3.6,5.1,3.5,5,3.4
			C4.9,3.3,4.9,3.1,4.9,2.9C5,2.7,5.2,2.6,5.4,2.5c0.1,0,0.2,0,0.3,0c0.1,0,0.2,0,0.4,0c0.3,0,0.5,0.1,0.8,0.1c0.3,0,0.6,0,0.8,0
			c0.3,0,0.6,0,0.8-0.1c0.3,0,0.6-0.1,0.8-0.1c0.2,0,0.5,0,0.7,0.1C10.2,2.7,10.3,2.9,10.3,3.1"/>
	</g>
</g>
</svg>
