<?xml version="1.0" encoding="utf-8"?>
<!-- Generator: Adobe Illustrator 21.0.0, SVG Export Plug-In . SVG Version: 6.00 Build 0)  -->
<svg version="1.1" id="Layer_1" xmlns="http://www.w3.org/2000/svg" xmlns:xlink="http://www.w3.org/1999/xlink" x="0px" y="0px"
	 viewBox="0 0 100 100" style="enable-background:new 0 0 100 100;" xml:space="preserve">
<style type="text/css">
	.st0{fill:#0099CC;}
	.st1{display:none;}
	.st2{display:inline;fill:#FFFFFF;}
</style>
<path class="st0" d="M50,0c30.8-0.7,26.9,37.2,16.9,54.6c-1.9,3.3-4.2,6.4-3.8,9.3c1.5,11.4,27.9,8.1,33.8,15.2
	C100,82.9,100,100,100,100H0c0,0-0.1-17.6,3.1-20.8c6.9-6.8,32.8-3.6,33.8-15.7c0.2-2.7-1.9-5.6-3.8-8.9C22.5,36.2,19.9-0.7,50,0
	L50,0z"/>
<g id="_x31_" class="st1">
	<path class="st2" d="M56.5,14.2v39.5h-9.9V32.6c0-3.1-0.1-4.9-0.2-5.5c-0.1-0.6-0.5-1.1-1.2-1.4s-2.1-0.5-4.4-0.5h-1v-4.6
		c4.8-1,8.4-3.1,10.9-6.3H56.5z"/>
</g>
<g id="_x32_" class="st1">
	<path class="st2" d="M60.4,47v6.7H38.7l0-5.6c6.4-10.5,10.3-17,11.5-19.5c1.2-2.5,1.8-4.4,1.8-5.8c0-1.1-0.2-1.9-0.5-2.4
		c-0.4-0.5-0.9-0.8-1.7-0.8c-0.8,0-1.3,0.3-1.7,0.9c-0.4,0.6-0.6,1.8-0.6,3.5v3.8h-8.8v-1.4c0-2.2,0.1-4,0.3-5.2
		c0.2-1.3,0.8-2.5,1.7-3.8c0.9-1.2,2.1-2.2,3.5-2.8c1.4-0.6,3.1-1,5.2-1c3.9,0,6.9,1,8.9,2.9c2,1.9,3,4.4,3,7.4
		c0,2.3-0.6,4.7-1.7,7.2c-1.1,2.5-4.5,7.9-10,16.1H60.4z"/>
</g>
<g id="a" class="st1">
	<path class="st2" d="M57.1,10.2L63,49.8H52.5L52,42.6h-3.7l-0.6,7.1H37l5.2-39.5H57.1z M51.7,35.6c-0.5-4.5-1-10-1.6-16.6
		c-1,7.6-1.7,13.1-2,16.6H51.7z"/>
</g>
<g id="_x33_" class="st1">
	<path class="st2" d="M57,31.4c1.5,0.5,2.6,1.3,3.3,2.5c0.7,1.1,1.1,3.8,1.1,8.1c0,3.1-0.4,5.6-1.1,7.3c-0.7,1.7-2,3.1-3.7,4
		c-1.8,0.9-4,1.4-6.8,1.4c-3.1,0-5.6-0.5-7.4-1.6s-3-2.3-3.5-3.9c-0.6-1.5-0.8-4.2-0.8-7.9v-3.1h9.9v6.4c0,1.7,0.1,2.8,0.3,3.3
		c0.2,0.5,0.7,0.7,1.4,0.7c0.8,0,1.3-0.3,1.5-0.9s0.4-2.1,0.4-4.6v-2.7c0-1.5-0.2-2.6-0.5-3.3c-0.3-0.7-0.8-1.2-1.5-1.4
		c-0.7-0.2-2-0.3-3.9-0.4v-5.7c2.3,0,3.8-0.1,4.3-0.3c0.6-0.2,1-0.6,1.2-1.2c0.2-0.6,0.4-1.5,0.4-2.8v-2.2c0-1.4-0.1-2.3-0.4-2.7
		c-0.3-0.4-0.7-0.7-1.3-0.7c-0.7,0-1.2,0.2-1.4,0.7c-0.3,0.5-0.4,1.5-0.4,3v3.2h-9.9v-3.4c0-3.8,0.9-6.3,2.6-7.7
		c1.7-1.3,4.5-2,8.2-2c4.7,0,7.9,0.9,9.6,2.8c1.7,1.8,2.5,4.4,2.5,7.7c0,2.2-0.3,3.8-0.9,4.8C59.6,29.6,58.5,30.5,57,31.4z"/>
</g>
</svg>
