<svg version="1" xmlns="http://www.w3.org/2000/svg" width="401.333" height="401.333" viewBox="0 0 301.000000 301.000000"><path d="M126.3 8.9c-11.7 4.2-21.2 8-21 8.4.2.8 39.4 16.6 43.4 17.4 2 .5 9.5-2.1 21.8-7.3 6-2.5 19.5-7.4 20.4-7.4.6 0 .9 3.9.7 9.7-.2 5.4-.5 9.8-.6 9.8-.5 0-.8 15-.3 16.7.2 1.1 1.4 1.8 2.8 1.8 3.1 0 4.1-3.3 2.6-8.5-.7-2.7-.7-4.2.2-5.6.9-1.5.9-2.3-.1-3.9-.7-1.3-1.2-5.9-1.2-12.9V16.3l-13.5-4.7C174 9 164.2 5.6 159.7 4c-4.5-1.7-9.1-2.9-10.2-2.9-1.1.1-11.6 3.6-23.2 7.8z"/><path d="M118.9 33.7c-.5 13.7 2.4 18.1 14.8 22.5 14.8 5.2 33.6 2.6 43.2-6 2.9-2.5 3.6-3.9 4-8.4.7-6.7.3-10.8-1.2-10.8-.6 0-7.5 2.5-15.3 5.5l-14.1 5.6-5.9-2.2c-3.2-1.2-7-2.6-8.4-3.2-1.4-.6-2.7-1.1-3-1.2-.3-.1-1.4-.5-2.5-1-11-4.4-11.5-4.5-11.6-.8zM107.3 83.4c-2.7 1.2-4.2 3.7-10.8 17.3C84.4 125.5 78.4 139 77 145c-2.5 10.3-1.1 22.9 3.4 31.8 4.6 9.1 9.1 12.6 29.6 23.5l4.5 2.4v47.9c0 26.3.4 48.5.8 49.1 1.1 1.7 70.2 1.9 71.2.3.4-.6.7-22.1.6-47.8 0-25.7.2-47.5.5-48.4.3-.9 5.5-4.4 11.7-7.7 12.5-6.7 18.4-11.8 22-19.4 6.4-13.2 6.2-27.8-.4-43-7.1-16.3-22.8-47.3-24.7-49.1-1.2-1-4.1-2.1-6.6-2.3-3.6-.4-4.6-.2-5.3 1.3-.4 1.1-.8 10.7-.7 21.4.1 15.3-.2 20.2-1.3 22.7-1.6 3.5-4.8 6-8.5 6.7-1.2.2-3.9.7-5.8 1.1-15.9 3-16.9 3-35-.1-6.4-1.1-10.3-2.9-12.4-5.7-1.9-2.6-2.1-4.5-2.6-25l-.5-22.2-3.5-.2c-1.9-.2-4.9.4-6.7 1.1z"/></svg>